<svg id="79b075e0-1152-4de1-8c92-fc362b5ab3be" data-name="Layer 1" xmlns="http://www.w3.org/2000/svg" xmlns:xlink="http://www.w3.org/1999/xlink" viewBox="0 0 722.49 413.831"><defs><linearGradient id="a6f15c82-d9fd-428f-bde3-67de1b1b6cf0" x1="432.515" y1="152.932" x2="481.209" y2="152.932" gradientUnits="userSpaceOnUse"><stop offset="0" stop-color="#d1d3d4"/><stop offset="1" stop-color="#a7a9ac"/></linearGradient><linearGradient id="41cb76e4-e08f-4c12-895c-b733175e4541" x1="290.517" y1="311.564" x2="351.227" y2="311.564" gradientUnits="userSpaceOnUse"><stop offset="0" stop-color="#004581"/><stop offset="1" stop-color="#00549a"/></linearGradient><linearGradient id="26ba4aa6-47f2-4bc7-bd8c-5c337f008d70" x1="361.516" y1="297.395" x2="422.225" y2="297.395" gradientUnits="userSpaceOnUse"><stop offset="0" stop-color="#00549a"/><stop offset="0.988" stop-color="#004581"/></linearGradient><linearGradient id="14d27740-1d8b-4937-b08a-2ec6c087eb1a" x1="432.515" y1="272.319" x2="493.223" y2="272.319" gradientUnits="userSpaceOnUse"><stop offset="0" stop-color="#004581"/><stop offset="0.243" stop-color="#00407b"/><stop offset="0.575" stop-color="#003469"/><stop offset="0.957" stop-color="#001f4d"/><stop offset="1" stop-color="#001c49"/></linearGradient></defs><title>DCM-logo-white-back</title><path d="M41.269,432.445c0,2.219,0,4.294-.012,6.248s-.048,3.682-.1,5.23-.132,2.83-.252,3.85a14.312,14.312,0,0,1-.348,1.882,3.752,3.752,0,0,1-.624,1.379,1.762,1.762,0,0,1-1.115.7c-.323.072-.7.144-1.127.2a13.215,13.215,0,0,1-1.463.084,1.856,1.856,0,0,0-.9.156.462.462,0,0,0-.252.42.577.577,0,0,0,.372.552,2.733,2.733,0,0,0,1.068.167c.731-.011,1.535-.036,2.4-.072s1.727-.072,2.566-.072c.876-.036,1.679-.06,2.4-.06s1.3-.012,1.7-.012c.912,0,1.967.049,3.178.132s2.495.192,3.874.3,2.783.216,4.2.3,2.771.132,4.078.132a45.238,45.238,0,0,0,8.923-.852,35.356,35.356,0,0,0,6.884-2.122,29.646,29.646,0,0,0,5.013-2.759,22.427,22.427,0,0,0,3.286-2.758,25.188,25.188,0,0,0,2.926-3.6,27.159,27.159,0,0,0,2.507-4.582,28.818,28.818,0,0,0,1.751-5.516,30.654,30.654,0,0,0,.659-6.381,29.172,29.172,0,0,0-1.007-7.711,25.23,25.23,0,0,0-2.566-6.068,23.788,23.788,0,0,0-3.406-4.5,22.48,22.48,0,0,0-5.145-4,26.851,26.851,0,0,0-5.8-2.423,38.405,38.405,0,0,0-6.117-1.247q-3.093-.378-6.08-.468c-2-.048-3.9-.072-5.708-.06-1.452,0-2.891.024-4.294.06s-2.71.06-3.886.1-2.147.06-2.9.06c-.7,0-1.607-.024-2.734-.06s-2.363-.072-3.694-.1-2.638-.06-3.934-.06a3.459,3.459,0,0,0-1.2.132.522.522,0,0,0-.384.516.532.532,0,0,0,.312.515,2.57,2.57,0,0,0,.911.132c.528,0,1.044.012,1.571.048a7.894,7.894,0,0,1,1.236.168,4.346,4.346,0,0,1,1.822.744,2.721,2.721,0,0,1,.936,1.319,7.587,7.587,0,0,1,.336,2.039c.024.443.048.923.072,1.415s.036,1.1.048,1.8.012,1.571.012,2.6.012,2.339.012,3.874v18.229Zm9-13.816v-4.305c0-1.439,0-2.806.012-4.1s.011-2.47.023-3.5.025-1.858.037-2.482a1.759,1.759,0,0,1,.191-.912,1.348,1.348,0,0,1,.672-.527,3.193,3.193,0,0,1,.768-.2c.36-.06.779-.108,1.247-.156s.935-.084,1.4-.108.887-.036,1.259-.036a42.76,42.76,0,0,1,4.63.228,32.14,32.14,0,0,1,5.216.995,26.082,26.082,0,0,1,5.4,2.171,24.234,24.234,0,0,1,5.193,3.8,18.368,18.368,0,0,1,2.387,2.77,22.848,22.848,0,0,1,2.231,3.9,24.98,24.98,0,0,1,1.643,5.073,29.468,29.468,0,0,1,.647,6.248,41.664,41.664,0,0,1-.539,7.064,22.921,22.921,0,0,1-1.883,6.093,14.75,14.75,0,0,1-3.622,4.761,19.609,19.609,0,0,1-4.581,3.01,21.656,21.656,0,0,1-5.373,1.655,36.893,36.893,0,0,1-6.6.516,22.947,22.947,0,0,1-4.762-.444,11.336,11.336,0,0,1-3.07-1.079A4.545,4.545,0,0,1,51.2,447.7a3.7,3.7,0,0,1-.444-1.368,20.193,20.193,0,0,1-.24-2.062c-.048-.744-.084-1.415-.107-2.039-.025-.468-.049-1.367-.072-2.687s-.037-2.974-.049-4.989-.023-4.305-.023-6.86v-9.067Zm60.243,13.816c0,2.219,0,4.294-.011,6.248s-.049,3.682-.1,5.23-.131,2.83-.251,3.85a14.47,14.47,0,0,1-.349,1.882,3.735,3.735,0,0,1-.623,1.379,1.767,1.767,0,0,1-1.115.7c-.324.072-.7.144-1.128.2a13.186,13.186,0,0,1-1.463.084,1.861,1.861,0,0,0-.9.156.463.463,0,0,0-.251.42.576.576,0,0,0,.372.552,2.724,2.724,0,0,0,1.067.167c.731-.011,1.535-.036,2.4-.072s1.727-.072,2.566-.072c.876-.036,1.679-.06,2.4-.06s1.3-.012,1.7-.012c1.067,0,2.194.012,3.394.049s2.554.095,4.089.167c1.535.036,3.323.084,5.361.133s4.4.083,7.088.083a17.08,17.08,0,0,0,2.111-.072,1.889,1.889,0,0,0,1.151-.48,2.868,2.868,0,0,0,.624-1.319c.1-.372.192-.923.3-1.619s.2-1.475.3-2.291.179-1.607.239-2.338.1-1.307.1-1.739a3.379,3.379,0,0,0-.072-.912.477.477,0,0,0-.5-.384.576.576,0,0,0-.528.241,2.213,2.213,0,0,0-.264.839,10.113,10.113,0,0,1-1.1,3.442,4.678,4.678,0,0,1-2.135,1.883,8.544,8.544,0,0,1-2.171.612,21.065,21.065,0,0,1-2.423.216c-.8.035-1.535.035-2.17.035a29.9,29.9,0,0,1-4.425-.239,5.929,5.929,0,0,1-2.591-.924,3.4,3.4,0,0,1-1.247-1.847,12.064,12.064,0,0,1-.372-3.034c-.012-.432-.024-1.008-.024-1.727s-.012-1.523-.012-2.4.012-1.751.012-2.65.012-1.715.012-2.483.012-1.391.012-1.895v-5.684a1.315,1.315,0,0,1,.084-.528.351.351,0,0,1,.347-.192c.36,0,.888,0,1.6.012s1.487.012,2.351.024l2.578.036c.851.024,1.619.036,2.279.06s1.127.048,1.415.084a6.649,6.649,0,0,1,2.146.54,3.328,3.328,0,0,1,1.272.959,3.28,3.28,0,0,1,.611,1.307,9.589,9.589,0,0,1,.2,1.38c.024.443.06.851.085,1.211a.787.787,0,0,0,.131.456.629.629,0,0,0,.516.191.531.531,0,0,0,.456-.227,1.192,1.192,0,0,0,.167-.528,5.426,5.426,0,0,0,.024-.612c0-.131.013-.4.037-.767s.048-.8.083-1.295.061-.984.1-1.476.048-.911.072-1.283c.1-1.211.192-2.183.276-2.9s.156-1.26.216-1.607a5.2,5.2,0,0,0,.084-.744.613.613,0,0,0-.144-.456.522.522,0,0,0-.36-.119.755.755,0,0,0-.516.251c-.179.168-.384.4-.635.684a2.745,2.745,0,0,1-1.319.756,11.05,11.05,0,0,1-2.135.323c-.348.024-.912.049-1.679.072s-1.655.036-2.627.036-1.966.024-2.95.024-1.847.012-2.614.012h-1.644a.428.428,0,0,1-.419-.2,1.35,1.35,0,0,1-.084-.587V403.446a.963.963,0,0,1,.12-.551.407.407,0,0,1,.383-.168c.3,0,.8,0,1.5.012s1.487.024,2.363.048,1.775.036,2.65.06,1.643.048,2.314.084,1.128.047,1.392.084a12.331,12.331,0,0,1,2.734.575,3.494,3.494,0,0,1,1.415.864,3.268,3.268,0,0,1,.672,1.151,4.586,4.586,0,0,1,.276.948,6.7,6.7,0,0,1,.119.935c.025.3.037.528.037.707a1.718,1.718,0,0,0,.131.744.548.548,0,0,0,.516.264.605.605,0,0,0,.528-.264,1.4,1.4,0,0,0,.192-.528c.036-.228.072-.563.108-1.007s.072-.912.1-1.427.06-.971.095-1.391.049-.732.061-.924c.072-1.091.155-1.943.239-2.578s.169-1.092.24-1.4a4.172,4.172,0,0,0,.1-.695,1.048,1.048,0,0,0-.083-.456.352.352,0,0,0-.348-.192,2.149,2.149,0,0,0-.576.12c-.2.072-.4.12-.576.168-.3.072-.707.144-1.247.216s-1.151.144-1.847.216c-.24.012-.791.024-1.643.024s-1.9.024-3.118.024-2.519.012-3.886.012-2.686.012-3.958.012h-5.384c-.516,0-1.164-.012-1.943-.048s-1.643-.06-2.591-.1c-.911,0-1.859-.012-2.854-.036s-1.991-.036-2.974-.036a3.789,3.789,0,0,0-1.2.132.523.523,0,0,0-.384.516.532.532,0,0,0,.312.515,2.572,2.572,0,0,0,.912.132c.528,0,1.043.012,1.571.048a7.9,7.9,0,0,1,1.235.168,4.513,4.513,0,0,1,1.823.744,2.765,2.765,0,0,1,.935,1.319,7.632,7.632,0,0,1,.336,2.039c.024.443.048.923.072,1.415s.036,1.1.048,1.8.013,1.571.013,2.614.011,2.327.011,3.862v18.229Zm57.15-5.828a.8.8,0,0,1,.119-.516.421.421,0,0,1,.384-.132h1.4c.671,0,1.463,0,2.35.012s1.811.012,2.723.036,1.75.036,2.494.06,1.307.06,1.679.108a5.387,5.387,0,0,1,1.859.576,4.112,4.112,0,0,1,1.2.959,3.586,3.586,0,0,1,.612,1.055,9.613,9.613,0,0,1,.324,1.248,5.636,5.636,0,0,1,.107.983,1.617,1.617,0,0,0,.132.7.479.479,0,0,0,.444.311.611.611,0,0,0,.636-.443,3.228,3.228,0,0,0,.084-.923c0-.144.012-.42.024-.828s.036-.9.071-1.451.049-1.092.085-1.619.072-.984.108-1.356c.12-1.139.24-2.1.371-2.9s.192-1.319.2-1.559c0-.431-.143-.647-.431-.647a.682.682,0,0,0-.492.191,5.935,5.935,0,0,0-.444.528,2.97,2.97,0,0,1-1.307.972,5.592,5.592,0,0,1-1.787.323c-.5.036-1.008.06-1.535.06s-1.092.012-1.7.012l-9.211.072a.462.462,0,0,1-.419-.167.88.88,0,0,1-.084-.481V403.806a1.418,1.418,0,0,1,.155-.8.543.543,0,0,1,.492-.2l11.081.216a8.555,8.555,0,0,1,2.339.36,5.081,5.081,0,0,1,1.559.8,2.91,2.91,0,0,1,.852,1,5.644,5.644,0,0,1,.383,1.524,11.83,11.83,0,0,1,.049,1.211,2.262,2.262,0,0,0,.2.875.542.542,0,0,0,.515.276.6.6,0,0,0,.528-.288,1.97,1.97,0,0,0,.192-.72c.036-.239.072-.623.108-1.175s.072-1.151.1-1.8.06-1.236.1-1.763.048-.9.059-1.092a18.333,18.333,0,0,1,.372-2.135,6.756,6.756,0,0,0,.2-1.1.715.715,0,0,0-.144-.456.454.454,0,0,0-.36-.192,1.426,1.426,0,0,0-.551.156,3.95,3.95,0,0,1-.6.276,5.816,5.816,0,0,1-1.235.192c-.468.036-1.043.06-1.715.1-.288.012-.888.024-1.787.024s-1.991.024-3.262.024-2.627.012-4.041.012-2.8.012-4.138.012h-5.769c-.516,0-1.163-.012-1.943-.048s-1.643-.06-2.591-.1q-1.421,0-2.913-.036t-2.915-.036a3.441,3.441,0,0,0-1.236.144.567.567,0,0,0-.419.576.467.467,0,0,0,.348.443,2.235,2.235,0,0,0,.875.132c.528,0,1.044.012,1.571.048a7.894,7.894,0,0,1,1.236.168,4.519,4.519,0,0,1,1.823.744,2.778,2.778,0,0,1,.935,1.319,7.672,7.672,0,0,1,.336,2.039c.024.443.048.923.072,1.415s.036,1.1.048,1.8.012,1.571.012,2.614.012,2.327.012,3.862v18.229c.012,3.466-.012,6.513-.048,9.115s-.144,4.689-.312,6.213a14.9,14.9,0,0,1-.348,1.894,3.691,3.691,0,0,1-.624,1.367,1.762,1.762,0,0,1-1.115.7c-.323.072-.695.144-1.127.2a13.215,13.215,0,0,1-1.463.084,1.623,1.623,0,0,0-.84.156.451.451,0,0,0-.24.42.583.583,0,0,0,.384.575,3.332,3.332,0,0,0,1.128.144c.695,0,1.475-.011,2.314-.036l2.578-.072q1.3-.036,2.411-.072t1.835-.036c.636,0,1.523.024,2.662.06s2.411.06,3.838.1,2.915.06,4.438.06a3.336,3.336,0,0,0,1.2-.167.587.587,0,0,0,.384-.552.434.434,0,0,0-.264-.42,2.038,2.038,0,0,0-.959-.156q-.522,0-1.152-.036l-1.3-.108q-.63-.072-1.151-.144a2.923,2.923,0,0,1-1.643-.7,2.96,2.96,0,0,1-.816-1.367,9.51,9.51,0,0,1-.348-1.894q-.252-2.286-.312-6.213c-.035-2.6-.059-5.649-.047-9.115v-5.828Zm59.452,27.7a33.568,33.568,0,0,0,10.122-1.487,28.455,28.455,0,0,0,8.263-4.15,27.14,27.14,0,0,0,6.188-6.368,28.57,28.57,0,0,0,3.874-8.108,32.446,32.446,0,0,0,1.343-9.39,29.569,29.569,0,0,0-2.026-11.153,23.152,23.152,0,0,0-5.793-8.48,25.6,25.6,0,0,0-9.151-5.4,36.884,36.884,0,0,0-12.1-1.883,35.858,35.858,0,0,0-9.69,1.236,27.343,27.343,0,0,0-7.6,3.346,25.318,25.318,0,0,0-5.66,4.9,27.772,27.772,0,0,0-3.862,5.937,30.162,30.162,0,0,0-2.9,12.784,30.633,30.633,0,0,0,.719,6.512,30.1,30.1,0,0,0,2.207,6.465,27.3,27.3,0,0,0,3.825,5.9,25.309,25.309,0,0,0,5.553,4.846,26.5,26.5,0,0,0,7.376,3.273,34.31,34.31,0,0,0,9.319,1.212Zm3.022-3.6a21.213,21.213,0,0,1-7.6-1.356,19.34,19.34,0,0,1-6.14-3.777,22.373,22.373,0,0,1-4.546-5.793,28.909,28.909,0,0,1-2.83-7.375,36.35,36.35,0,0,1-.971-8.539,36.82,36.82,0,0,1,1.043-9.223,20.688,20.688,0,0,1,2.806-6.453,15.039,15.039,0,0,1,4.042-4.077,15.444,15.444,0,0,1,4.8-2.147,20.036,20.036,0,0,1,13.288,1.188,19.769,19.769,0,0,1,6.693,5.2,24.78,24.78,0,0,1,4.485,8.227,34.7,34.7,0,0,1,1.631,10.877,41.132,41.132,0,0,1-.888,8.947,23.3,23.3,0,0,1-2.314,6.32,16.1,16.1,0,0,1-3.25,4.15,14.208,14.208,0,0,1-3.67,2.423,15.988,15.988,0,0,1-3.586,1.127,16.9,16.9,0,0,1-2.986.276Zm44.413-18.278c0,2.219,0,4.294-.012,6.248s-.048,3.682-.1,5.23-.132,2.83-.252,3.85a14.9,14.9,0,0,1-.348,1.894,3.674,3.674,0,0,1-.623,1.367,1.767,1.767,0,0,1-1.116.7c-.323.072-.695.144-1.127.2a13.186,13.186,0,0,1-1.463.084,1.856,1.856,0,0,0-.9.156.461.461,0,0,0-.251.42.576.576,0,0,0,.371.552,2.733,2.733,0,0,0,1.068.167c.731,0,1.535-.011,2.4-.036l2.555-.072c.851-.024,1.607-.048,2.279-.072s1.2-.036,1.547-.036c.288,0,.791.012,1.523.036s1.6.048,2.6.072,2.075.048,3.19.072,2.207.036,3.263.036a2.731,2.731,0,0,0,1.067-.167.576.576,0,0,0,.372-.552.478.478,0,0,0-.216-.42,1.077,1.077,0,0,0-.648-.156c-.3,0-.647-.012-1.055-.036s-.84-.072-1.271-.108-.828-.1-1.2-.144a2.926,2.926,0,0,1-1.643-.7,2.968,2.968,0,0,1-.816-1.367,9.584,9.584,0,0,1-.347-1.894q-.18-1.53-.252-3.85c-.048-1.548-.084-3.3-.1-5.253s-.012-4.054-.012-6.3v-1.007a.568.568,0,0,1,.156-.456.626.626,0,0,1,.42-.119l6.26.143a2.24,2.24,0,0,1,.707.084,1.277,1.277,0,0,1,.588.42c.24.276.612.768,1.1,1.451s1.068,1.5,1.728,2.435,1.367,1.931,2.1,2.974,1.476,2.063,2.195,3.07q2,2.77,3.658,4.833a33.811,33.811,0,0,0,3.166,3.5,14.634,14.634,0,0,0,3.034,2.243,10.05,10.05,0,0,0,1.931.8,12.32,12.32,0,0,0,2.4.432c.923.084,2.039.132,3.37.132h6.836a2.8,2.8,0,0,0,1.007-.144.579.579,0,0,0,.36-.575.478.478,0,0,0-.216-.42,1.073,1.073,0,0,0-.647-.156,8.371,8.371,0,0,1-.924-.048c-.335-.036-.695-.1-1.091-.168-.276-.048-.66-.132-1.151-.264a12.829,12.829,0,0,1-1.775-.695,16.611,16.611,0,0,1-2.327-1.439,22.456,22.456,0,0,1-2.807-2.5q-3.166-3.365-6.991-8.119-3.851-4.751-8.623-10.806a35.681,35.681,0,0,0,5.7-5.613,18.026,18.026,0,0,0,2.95-5.277,15.708,15.708,0,0,0,.852-5.229,12.187,12.187,0,0,0-.48-3.382,13.194,13.194,0,0,0-1.211-2.842,12.333,12.333,0,0,0-1.583-2.195,9.477,9.477,0,0,0-1.619-1.439,15.938,15.938,0,0,0-4.149-1.991,23.736,23.736,0,0,0-4.51-.9,45.158,45.158,0,0,0-4.581-.2c-.576,0-1.3.012-2.183.036s-1.811.048-2.807.072-1.942.048-2.854.072-1.679.036-2.3.036c-.384,0-.936-.012-1.643-.036s-1.512-.048-2.423-.072-1.859-.06-2.854-.072-1.979-.036-2.939-.036a3.463,3.463,0,0,0-1.2.132.522.522,0,0,0-.384.516.532.532,0,0,0,.312.515,2.572,2.572,0,0,0,.912.132c.527,0,1.043.012,1.57.048a7.894,7.894,0,0,1,1.236.168,4.351,4.351,0,0,1,1.823.744,2.72,2.72,0,0,1,.935,1.319,7.587,7.587,0,0,1,.336,2.039c.024.443.048.923.072,1.415s.036,1.1.048,1.8.012,1.571.012,2.6.012,2.339.012,3.874v18.229Zm8.491-28.855a1.338,1.338,0,0,1,.132-.671.834.834,0,0,1,.516-.336,7.479,7.479,0,0,1,1.5-.228c.648-.048,1.415-.06,2.314-.06a10.179,10.179,0,0,1,2.771.384,10.965,10.965,0,0,1,2.938,1.307,10.437,10.437,0,0,1,2.65,2.423,12.044,12.044,0,0,1,1.919,3.765,17.644,17.644,0,0,1,.732,5.289,19.072,19.072,0,0,1-.623,5.073,12.03,12.03,0,0,1-1.56,3.526,8.685,8.685,0,0,1-2.063,2.195,6.183,6.183,0,0,1-1.259.732,5.651,5.651,0,0,1-1.535.383,20.07,20.07,0,0,1-2.314.108c-.6,0-1.236-.024-1.884-.072a18.689,18.689,0,0,1-1.894-.24,11.887,11.887,0,0,1-1.691-.407.9.9,0,0,1-.516-.432,2.033,2.033,0,0,1-.132-.864Z" transform="translate(-34.001 -98.418)" fill="#00549a"/><path d="M331.477,432.445c0,2.219,0,4.294-.012,6.248s-.048,3.682-.1,5.23-.131,2.83-.252,3.85a14.15,14.15,0,0,1-.348,1.882,3.735,3.735,0,0,1-.623,1.379,1.767,1.767,0,0,1-1.115.7c-.324.072-.7.144-1.128.2a13.186,13.186,0,0,1-1.463.084,1.854,1.854,0,0,0-.9.156.462.462,0,0,0-.252.42.576.576,0,0,0,.372.552,2.724,2.724,0,0,0,1.067.167c.731-.011,1.535-.036,2.4-.072s1.727-.072,2.566-.072c.876-.036,1.679-.06,2.4-.06s1.3-.012,1.7-.012c.911,0,1.966.049,3.178.132s2.5.192,3.874.3,2.782.216,4.2.3,2.77.132,4.078.132a45.246,45.246,0,0,0,8.923-.852,35.345,35.345,0,0,0,6.883-2.122,29.658,29.658,0,0,0,5.014-2.759,22.413,22.413,0,0,0,3.285-2.758,25.26,25.26,0,0,0,2.927-3.6,27.23,27.23,0,0,0,2.507-4.582,28.888,28.888,0,0,0,1.751-5.516,30.721,30.721,0,0,0,.659-6.381,29.255,29.255,0,0,0-1.007-7.711,25.231,25.231,0,0,0-2.567-6.068,23.7,23.7,0,0,0-3.406-4.5,22.48,22.48,0,0,0-5.145-4,26.851,26.851,0,0,0-5.805-2.423,38.371,38.371,0,0,0-6.116-1.247q-3.093-.378-6.08-.468c-2-.048-3.9-.072-5.709-.06-1.451,0-2.89.024-4.293.06s-2.711.06-3.886.1-2.147.06-2.9.06c-.7,0-1.607-.024-2.735-.06s-2.363-.072-3.694-.1-2.638-.06-3.933-.06a3.466,3.466,0,0,0-1.2.132.523.523,0,0,0-.384.516.532.532,0,0,0,.312.515,2.572,2.572,0,0,0,.912.132c.528,0,1.043.012,1.571.048a7.879,7.879,0,0,1,1.235.168,4.351,4.351,0,0,1,1.823.744,2.713,2.713,0,0,1,.935,1.319,7.587,7.587,0,0,1,.336,2.039c.024.443.048.923.072,1.415s.036,1.1.048,1.8.012,1.571.012,2.6.012,2.339.012,3.874v18.229Zm9-13.816v-4.305c0-1.439,0-2.806.012-4.1s.012-2.47.024-3.5.024-1.858.036-2.482a1.749,1.749,0,0,1,.192-.912,1.349,1.349,0,0,1,.671-.527,3.193,3.193,0,0,1,.768-.2c.36-.06.779-.108,1.247-.156s.935-.084,1.4-.108.888-.036,1.26-.036a42.73,42.73,0,0,1,4.629.228,32.171,32.171,0,0,1,5.217.995,26.1,26.1,0,0,1,5.4,2.171,24.234,24.234,0,0,1,5.193,3.8,18.423,18.423,0,0,1,2.386,2.77,22.848,22.848,0,0,1,2.231,3.9,24.918,24.918,0,0,1,1.643,5.073,29.4,29.4,0,0,1,.648,6.248,41.661,41.661,0,0,1-.54,7.064,22.885,22.885,0,0,1-1.883,6.093,14.736,14.736,0,0,1-3.622,4.761,19.609,19.609,0,0,1-4.581,3.01,21.63,21.63,0,0,1-5.373,1.655,36.893,36.893,0,0,1-6.6.516,22.936,22.936,0,0,1-4.761-.444,11.311,11.311,0,0,1-3.07-1.079,4.541,4.541,0,0,1-1.6-1.355,3.705,3.705,0,0,1-.443-1.368,19.915,19.915,0,0,1-.24-2.062c-.048-.744-.084-1.415-.108-2.039-.024-.468-.048-1.367-.072-2.687s-.036-2.974-.048-4.989-.024-4.305-.024-6.86v-9.067Zm108.311,35.692c1.164,0,2.351-.036,3.562-.1s2.4-.169,3.562-.3,2.243-.312,3.238-.516a15.838,15.838,0,0,0,2.591-.743,4.063,4.063,0,0,0,.947-.492,1.72,1.72,0,0,0,.552-.624,4.314,4.314,0,0,0,.372-.971c.144-.5.288-1.115.444-1.847s.288-1.511.419-2.327.264-1.607.372-2.362.192-1.4.252-1.943.1-.912.1-1.091a1.775,1.775,0,0,0-.132-.756.549.549,0,0,0-.516-.324.609.609,0,0,0-.6.288,3.7,3.7,0,0,0-.336,1.151,9.027,9.027,0,0,1-.492,1.5,13.312,13.312,0,0,1-.839,1.7,10.553,10.553,0,0,1-1.116,1.547,10.069,10.069,0,0,1-3.262,2.519,14.324,14.324,0,0,1-4.281,1.2,41.452,41.452,0,0,1-5.625.311,19.217,19.217,0,0,1-5.025-.708,23.119,23.119,0,0,1-5.133-2.122,24.3,24.3,0,0,1-4.786-3.55,23.969,23.969,0,0,1-3.993-4.989,25.306,25.306,0,0,1-2.722-6.405,29.7,29.7,0,0,1-1.008-7.843,39.22,39.22,0,0,1,.552-6.86,23.991,23.991,0,0,1,2.014-6.356,18.4,18.4,0,0,1,4.054-5.421,15.492,15.492,0,0,1,3.526-2.434,17.377,17.377,0,0,1,4.414-1.512,27.18,27.18,0,0,1,5.588-.516,31.425,31.425,0,0,1,6.2.6,22.263,22.263,0,0,1,5.037,1.583,10.957,10.957,0,0,1,3.37,2.279,10.282,10.282,0,0,1,2.806,6.62,3.616,3.616,0,0,0,.144,1.163.586.586,0,0,0,.576.42.656.656,0,0,0,.648-.42,3.776,3.776,0,0,0,.215-1.235c.036-.371.06-.864.072-1.487s.024-1.307.036-2.051.024-1.487.036-2.218.036-1.416.072-2.016c.048-.827.108-1.51.156-2.014s.108-.924.144-1.224a6.578,6.578,0,0,0,.06-.719.719.719,0,0,0-.24-.564,1.325,1.325,0,0,0-.839-.3c-1.068-.12-2.195-.312-3.382-.564s-2.447-.468-3.814-.66c-1.091-.144-2.147-.276-3.178-.384s-2.135-.192-3.3-.252-2.483-.084-3.958-.084a44.458,44.458,0,0,0-9.511.924,29.3,29.3,0,0,0-7.411,2.614,26.681,26.681,0,0,0-5.817,4.09,24.9,24.9,0,0,0-4.233,5.061,26.432,26.432,0,0,0-2.567,5.337,28.742,28.742,0,0,0-1.271,5.061,27.333,27.333,0,0,0-.348,4.257,34.644,34.644,0,0,0,.408,5.385A28.35,28.35,0,0,0,417,436.163a24.989,24.989,0,0,0,2.734,5.373,25.6,25.6,0,0,0,4.366,4.941,29.113,29.113,0,0,0,7.123,4.557,35.043,35.043,0,0,0,8.24,2.519,52.5,52.5,0,0,0,9.318.768Zm55.5-19.357a.745.745,0,0,1,.444.12.817.817,0,0,1,.275.383l5.757,14.824a1.259,1.259,0,0,1,0,1.1,1.038,1.038,0,0,1-.648.552,1.9,1.9,0,0,0-.767.192.47.47,0,0,0-.24.456c.012.24.2.383.6.443a13.346,13.346,0,0,0,1.559.132c1.931.048,3.766.084,5.505.1s3.31.037,4.7.037,2.519.011,3.394.011,1.559-.024,2.039-.06a2.614,2.614,0,0,0,1.007-.216.464.464,0,0,0,.264-.443.471.471,0,0,0-.252-.48,1.59,1.59,0,0,0-.684-.1c-.431,0-.911-.024-1.427-.06a15.5,15.5,0,0,1-1.595-.228,4.637,4.637,0,0,1-1.247-.468A6.017,6.017,0,0,1,521.5,450.1a12.689,12.689,0,0,1-1.691-2.3,32.08,32.08,0,0,1-1.931-3.909q-.863-2.069-2.015-4.857t-2.47-6.021q-1.332-3.256-2.735-6.7t-2.782-6.872q-1.386-3.418-2.651-6.548c-.851-2.087-1.619-3.994-2.326-5.721s-1.3-3.19-1.787-4.389-.852-2.063-1.08-2.567a9.61,9.61,0,0,0-.923-1.775,1.087,1.087,0,0,0-.876-.528c-.347-.012-.659.2-.947.66a13.375,13.375,0,0,0-1.067,2.219L478.157,445.4a23.414,23.414,0,0,1-1.487,3.178,7.441,7.441,0,0,1-1.9,2.231,5.589,5.589,0,0,1-2.735,1.067c-.3.036-.671.072-1.091.1s-.8.048-1.139.048a1.188,1.188,0,0,0-.648.132.466.466,0,0,0-.216.444.577.577,0,0,0,.336.575,2.731,2.731,0,0,0,1.032.144c.947,0,1.87-.011,2.794-.036s1.775-.048,2.554-.072,1.464-.048,2-.072.935-.036,1.139-.036c.755,0,1.571.024,2.458.06s1.776.06,2.663.1,1.727.06,2.506.06a2.3,2.3,0,0,0,.912-.144.6.6,0,0,0,.312-.575.427.427,0,0,0-.216-.444,1.833,1.833,0,0,0-.864-.132H485.5a3.339,3.339,0,0,1-2.279-.624,2.04,2.04,0,0,1-.6-1.607,8.84,8.84,0,0,1,.277-1.847,17.852,17.852,0,0,1,.8-2.542l3.886-9.859a1.143,1.143,0,0,1,.24-.455.588.588,0,0,1,.407-.12Zm-14.607-3.6c-.144,0-.24-.048-.277-.144a.529.529,0,0,1-.012-.36L496,413.233a1.7,1.7,0,0,1,.168-.432.352.352,0,0,1,.263-.216c.108.012.18.084.24.216a3.725,3.725,0,0,1,.12.432l6.476,17.7a.373.373,0,0,1-.011.3.4.4,0,0,1-.349.132Zm48.658,1.079c0,2.219,0,4.294-.012,6.248s-.048,3.682-.1,5.23-.132,2.83-.252,3.85a14.9,14.9,0,0,1-.348,1.894,3.691,3.691,0,0,1-.624,1.367,1.762,1.762,0,0,1-1.115.7c-.323.072-.695.144-1.127.2a13.215,13.215,0,0,1-1.463.084,1.856,1.856,0,0,0-.9.156.462.462,0,0,0-.252.42.576.576,0,0,0,.372.552,2.733,2.733,0,0,0,1.068.167c.731,0,1.535-.011,2.4-.036l2.591-.072q1.295-.036,2.374-.072c.708-.024,1.283-.036,1.7-.036.636,0,1.524.024,2.675.06s2.434.06,3.9.1,2.986.06,4.582.06a2.517,2.517,0,0,0,.983-.167.6.6,0,0,0,.384-.552.465.465,0,0,0-.276-.42,1.84,1.84,0,0,0-.875-.156c-.36,0-.768-.012-1.212-.036l-1.295-.108c-.432-.048-.815-.1-1.163-.144a2.688,2.688,0,0,1-2.459-2.051,8.842,8.842,0,0,1-.347-1.834c-.121-1.044-.2-2.339-.253-3.9s-.084-3.31-.1-5.254-.012-4.029-.012-6.248V403.662a2.132,2.132,0,0,1,.156-.923.764.764,0,0,1,.419-.444,5.98,5.98,0,0,1,1.248-.228c.491-.048,1.007-.06,1.559-.06a11.264,11.264,0,0,1,2.026.192,10.656,10.656,0,0,1,5.17,2.614,12.019,12.019,0,0,1,2.362,2.867,12.639,12.639,0,0,1,1.271,2.986,14.893,14.893,0,0,1,.516,2.758,21.694,21.694,0,0,1,.1,2.183,13.216,13.216,0,0,1-.935,4.953,12.131,12.131,0,0,1-2.375,3.73,10.8,10.8,0,0,1-3.13,2.363,7.154,7.154,0,0,1-3.2.827,4.747,4.747,0,0,0-1.571.18.6.6,0,0,0-.443.612.484.484,0,0,0,.3.479,1.849,1.849,0,0,0,.564.168,4.272,4.272,0,0,0,.756.061c.312.011.564.011.755.011a19.508,19.508,0,0,0,7.076-1.283,16.741,16.741,0,0,0,5.613-3.6,16.269,16.269,0,0,0,3.682-5.5,18.473,18.473,0,0,0,1.331-7.029,11.567,11.567,0,0,0-.576-3.585,13.541,13.541,0,0,0-1.379-2.939,10.9,10.9,0,0,0-1.643-2.038,11.54,11.54,0,0,0-3.754-2.459,18.449,18.449,0,0,0-3.909-1.151,30.689,30.689,0,0,0-5.721-.492c-1.115,0-2.291.024-3.514.06s-2.447.06-3.634.1-2.29.06-3.286.06c-.695,0-1.607-.024-2.734-.06s-2.363-.072-3.694-.1-2.638-.06-3.934-.06a3.459,3.459,0,0,0-1.2.132.522.522,0,0,0-.384.516.532.532,0,0,0,.312.515,2.57,2.57,0,0,0,.911.132c.528,0,1.044.012,1.571.048a7.894,7.894,0,0,1,1.236.168,4.346,4.346,0,0,1,1.822.744,2.721,2.721,0,0,1,.936,1.319,7.587,7.587,0,0,1,.336,2.039c.024.443.048.923.072,1.415s.036,1.1.048,1.8.012,1.571.012,2.6.012,2.339.012,3.874v18.229Zm49.738,0c0,2.339,0,4.5-.012,6.5s-.048,3.766-.1,5.325-.131,2.842-.251,3.861a7.1,7.1,0,0,1-.588,2.471,2.011,2.011,0,0,1-1.5,1.127c-.324.072-.7.144-1.127.2a13.219,13.219,0,0,1-1.464.084,1.854,1.854,0,0,0-.9.156.462.462,0,0,0-.252.42.576.576,0,0,0,.372.552,2.731,2.731,0,0,0,1.067.167c.732,0,1.535-.011,2.4-.036l2.59-.072q1.3-.036,2.375-.072c.708-.024,1.283-.036,1.7-.036.659,0,1.571.024,2.722.06s2.459.06,3.91.1,3,.06,4.594.06a2.52,2.52,0,0,0,.983-.167.6.6,0,0,0,.384-.552.465.465,0,0,0-.276-.42,1.842,1.842,0,0,0-.876-.156c-.372,0-.767-.012-1.211-.036l-1.3-.108c-.432-.048-.816-.1-1.164-.144a3.366,3.366,0,0,1-1.654-.612,2.635,2.635,0,0,1-.864-1.2,6.855,6.855,0,0,1-.36-1.715c-.1-1.043-.156-2.338-.2-3.91s-.06-3.345-.072-5.348-.012-4.162-.012-6.5V414.216c0-1.535,0-2.83.012-3.874s.012-1.907.024-2.6.024-1.3.036-1.8.048-.972.072-1.415a6.269,6.269,0,0,1,.66-2.867,2.74,2.74,0,0,1,2-1.235c.42-.072.8-.132,1.128-.168a9.749,9.749,0,0,1,1.032-.048,1.956,1.956,0,0,0,.839-.144.6.6,0,0,0,.312-.575c0-.216-.144-.36-.408-.456a3.845,3.845,0,0,0-1.1-.12q-1.044,0-2.267.036c-.827.012-1.643.048-2.471.072s-1.6.048-2.29.072-1.3.036-1.751.036c-.528,0-1.188-.012-1.955-.036s-1.6-.048-2.483-.072-1.739-.06-2.59-.072-1.631-.036-2.327-.036a5,5,0,0,0-1.295.12c-.288.1-.432.24-.432.456a.6.6,0,0,0,.312.575,1.956,1.956,0,0,0,.839.144,12.285,12.285,0,0,1,1.32.06,8.261,8.261,0,0,1,1.271.228,2.548,2.548,0,0,1,1.763,1.235,5.957,5.957,0,0,1,.684,2.8c.024.443.047.923.072,1.415s.035,1.1.047,1.8.013,1.559.013,2.6.012,2.339.012,3.874v18.229Zm44.7,0c0,2.219,0,4.294-.012,6.248s-.047,3.682-.1,5.23-.133,2.83-.252,3.85a8.978,8.978,0,0,1-.588,2.65,2.057,2.057,0,0,1-1.5,1.307c-.324.072-.7.144-1.127.2a13.215,13.215,0,0,1-1.463.084,1.851,1.851,0,0,0-.9.156.462.462,0,0,0-.252.42.576.576,0,0,0,.372.552,2.728,2.728,0,0,0,1.067.167c.732,0,1.535-.011,2.4-.036l2.59-.072q1.3-.036,2.375-.072c.708-.024,1.283-.036,1.7-.036.683,0,1.607.024,2.77.06s2.471.06,3.934.1,3,.06,4.593.06a2.513,2.513,0,0,0,.983-.167.6.6,0,0,0,.384-.552.465.465,0,0,0-.275-.42,1.842,1.842,0,0,0-.876-.156c-.36,0-.768-.012-1.211-.036l-1.295-.108c-.432-.048-.816-.1-1.163-.144a2.92,2.92,0,0,1-1.644-.684,3.02,3.02,0,0,1-.815-1.367,8.84,8.84,0,0,1-.348-1.834c-.12-1.044-.2-2.339-.252-3.9s-.084-3.31-.1-5.254-.012-4.029-.012-6.248v-29.5l9.067.216a18.043,18.043,0,0,1,5.013.695,5.937,5.937,0,0,1,2.638,1.487,2.977,2.977,0,0,1,.84,1.847l.072.792a3.428,3.428,0,0,0,.2,1.127.608.608,0,0,0,.587.312.475.475,0,0,0,.456-.312,2.554,2.554,0,0,0,.192-.84c0-.491.012-1.115.036-1.882s.048-1.584.072-2.423.048-1.643.072-2.363.036-1.283.036-1.678a4.07,4.07,0,0,0-.1-1.164.455.455,0,0,0-.48-.348,4.156,4.156,0,0,0-.672.1c-.311.072-.731.156-1.27.264-.528.072-1.212.156-2.028.228s-1.787.12-2.938.132h-28.5c-.792,0-1.619-.012-2.459-.048s-1.667-.072-2.47-.12-1.559-.12-2.267-.192a6.986,6.986,0,0,1-1.475-.288,9.215,9.215,0,0,1-.959-.384,1.817,1.817,0,0,0-.66-.192.578.578,0,0,0-.516.336,3.757,3.757,0,0,0-.347,1.032c-.037.132-.1.456-.217.971s-.227,1.14-.371,1.859-.288,1.451-.432,2.195-.252,1.415-.348,2a8.847,8.847,0,0,0-.144,1.247,2.051,2.051,0,0,0,.132.875.531.531,0,0,0,.516.276.618.618,0,0,0,.5-.216,1.636,1.636,0,0,0,.289-.647,6.372,6.372,0,0,1,.4-1.067,10.029,10.029,0,0,1,.828-1.452,3.5,3.5,0,0,1,1.367-1.211,6.963,6.963,0,0,1,2.2-.624,29.394,29.394,0,0,1,3.418-.251l10.721-.288Z" transform="translate(-34.001 -98.418)" fill="#00549a"/><path d="M691.5,434.964a.743.743,0,0,1,.443.12.812.812,0,0,1,.276.383l5.757,14.824a1.259,1.259,0,0,1,0,1.1,1.041,1.041,0,0,1-.648.552,1.9,1.9,0,0,0-.767.192.47.47,0,0,0-.24.456c.012.24.2.383.6.443a13.346,13.346,0,0,0,1.559.132c1.93.048,3.765.084,5.5.1s3.31.037,4.7.037,2.518.011,3.394.011,1.559-.024,2.039-.06a2.614,2.614,0,0,0,1.007-.216.464.464,0,0,0,.264-.443.471.471,0,0,0-.252-.48,1.59,1.59,0,0,0-.684-.1c-.432,0-.911-.024-1.427-.06a15.5,15.5,0,0,1-1.6-.228,4.612,4.612,0,0,1-1.247-.468,6.017,6.017,0,0,1-1.463-1.163,12.689,12.689,0,0,1-1.691-2.3,31.934,31.934,0,0,1-1.931-3.909q-.864-2.069-2.015-4.857t-2.47-6.021q-1.332-3.256-2.735-6.7t-2.782-6.872q-1.386-3.418-2.651-6.548c-.851-2.087-1.619-3.994-2.327-5.721s-1.295-3.19-1.786-4.389-.852-2.063-1.08-2.567a9.673,9.673,0,0,0-.923-1.775,1.087,1.087,0,0,0-.876-.528c-.347-.012-.659.2-.947.66a13.361,13.361,0,0,0-1.068,2.219L665.379,445.4a23.414,23.414,0,0,1-1.487,3.178,7.441,7.441,0,0,1-1.9,2.231,5.589,5.589,0,0,1-2.735,1.067c-.3.036-.671.072-1.091.1s-.8.048-1.139.048a1.188,1.188,0,0,0-.648.132.466.466,0,0,0-.216.444.577.577,0,0,0,.336.575,2.731,2.731,0,0,0,1.032.144c.947,0,1.87-.011,2.794-.036s1.775-.048,2.554-.072,1.464-.048,2-.072.935-.036,1.138-.036c.756,0,1.572.024,2.459.06s1.775.06,2.663.1,1.727.06,2.506.06a2.3,2.3,0,0,0,.912-.144.6.6,0,0,0,.312-.575.427.427,0,0,0-.216-.444,1.833,1.833,0,0,0-.864-.132h-1.079a3.339,3.339,0,0,1-2.279-.624,2.04,2.04,0,0,1-.6-1.607,8.893,8.893,0,0,1,.276-1.847,18,18,0,0,1,.8-2.542l3.886-9.859a1.156,1.156,0,0,1,.239-.455.592.592,0,0,1,.408-.12Zm-14.608-3.6c-.144,0-.24-.048-.276-.144a.529.529,0,0,1-.012-.36l6.62-17.629a1.742,1.742,0,0,1,.169-.432.352.352,0,0,1,.263-.216c.108.012.18.084.24.216a3.725,3.725,0,0,1,.12.432l6.476,17.7a.373.373,0,0,1-.011.3.4.4,0,0,1-.349.132Zm57.653-11.585v-5.565c0-1.535,0-2.83.012-3.874s.012-1.907.024-2.6.025-1.3.036-1.8.048-.972.072-1.415a6.269,6.269,0,0,1,.66-2.867,2.742,2.742,0,0,1,2-1.235c.443-.072.923-.132,1.427-.168s.972-.048,1.379-.048a2.809,2.809,0,0,0,.972-.132.554.554,0,0,0-.06-1.031,3.388,3.388,0,0,0-1.128-.132c-.719,0-1.535.012-2.47.036s-1.871.048-2.831.072-1.823.048-2.626.072-1.416.036-1.859.036c-.492,0-1.127-.012-1.883-.036s-1.6-.048-2.507-.072-1.834-.06-2.77-.072-1.847-.036-2.7-.036a3.456,3.456,0,0,0-1.2.132.521.521,0,0,0-.384.516.532.532,0,0,0,.312.515,2.566,2.566,0,0,0,.911.132c.468,0,.911.012,1.319.048a6.971,6.971,0,0,1,1.056.168,4.346,4.346,0,0,1,1.822.744,2.721,2.721,0,0,1,.936,1.319,7.627,7.627,0,0,1,.336,2.039c.024.443.047.923.072,1.415s.035,1.1.047,1.8.013,1.571.013,2.6.012,2.339.012,3.874v18.229c0,2.219,0,4.294-.012,6.248s-.048,3.682-.1,5.23-.131,2.83-.251,3.85a14.312,14.312,0,0,1-.348,1.882,3.752,3.752,0,0,1-.624,1.379,1.762,1.762,0,0,1-1.115.7c-.324.072-.7.144-1.127.2a13.215,13.215,0,0,1-1.463.084,1.856,1.856,0,0,0-.9.156.462.462,0,0,0-.252.42.576.576,0,0,0,.372.552,2.731,2.731,0,0,0,1.067.167c.732-.011,1.536-.036,2.4-.072s1.727-.072,2.566-.072c.876-.036,1.679-.06,2.4-.06s1.3-.012,1.7-.012c.984,0,1.931.012,2.866.024s1.883.036,2.855.072,1.99.072,3.058.12c1.595.036,3.382.084,5.349.133s4.245.083,6.812.083c.924,0,1.667-.024,2.231-.083a3.7,3.7,0,0,0,1.271-.3,1.42,1.42,0,0,0,.671-.588,3.794,3.794,0,0,0,.361-.972c.119-.431.227-.959.335-1.583s.2-1.295.288-2,.18-1.38.24-2.039.12-1.212.156-1.691.06-.792.06-.96a2.661,2.661,0,0,0-.1-.936.462.462,0,0,0-.48-.287.631.631,0,0,0-.588.3,1.888,1.888,0,0,0-.2.779,6.725,6.725,0,0,1-.36,1.524,9.942,9.942,0,0,1-.671,1.558,6.146,6.146,0,0,1-.84,1.236,5.287,5.287,0,0,1-2.134,1.391,10.368,10.368,0,0,1-2.807.528c-1.043.072-2.207.107-3.477.1-1.847,0-3.347-.06-4.486-.167a11.546,11.546,0,0,1-2.662-.528,4.418,4.418,0,0,1-1.56-.887,4.356,4.356,0,0,1-1.067-2.543,36.684,36.684,0,0,1-.383-5.109c-.049-2.147-.072-4.749-.061-7.82Z" transform="translate(-34.001 -98.418)" fill="#00549a"/><path d="M256.573,490.34h.109c.133.154.392.444.766.882s.851.973,1.412,1.617,1.194,1.359,1.888,2.144,1.429,1.6,2.2,2.448,1.556,1.687,2.346,2.53c.947,1,1.931,2.048,2.938,3.13s1.991,2.138,2.956,3.175,1.864,1.991,2.685,2.86,1.52,1.6,2.1,2.2a5.243,5.243,0,0,0,.615.586,1.062,1.062,0,0,0,.616.264.369.369,0,0,0,.355-.283,2.578,2.578,0,0,0,.115-.915l.4-24.382a10.736,10.736,0,0,1,.139-1.746,2.33,2.33,0,0,1,.41-1.03,1.506,1.506,0,0,1,.791-.508,3.068,3.068,0,0,1,.573-.1,4.551,4.551,0,0,1,.513-.013q.651,0,.651-.348a.3.3,0,0,0-.242-.289,1.948,1.948,0,0,0-.59-.059c-.592,0-1.135.014-1.617.033s-.893.032-1.225.051-.567.033-.706.033c-.259,0-.609-.013-1.056-.033s-.947-.038-1.52-.051-1.17-.033-1.8-.033a2.549,2.549,0,0,0-.676.059.306.306,0,0,0-.265.289.29.29,0,0,0,.126.258.875.875,0,0,0,.453.09c.174,0,.374,0,.6.007a6.121,6.121,0,0,1,.687.058,2.8,2.8,0,0,1,.628.167,1.644,1.644,0,0,1,.7.548,2.667,2.667,0,0,1,.392,1.062,12.323,12.323,0,0,1,.139,1.868l.362,17.35h-.181c-.133-.135-.4-.438-.827-.9s-.929-1.037-1.532-1.713-1.237-1.385-1.912-2.138-1.333-1.481-1.979-2.19-1.213-1.333-1.713-1.868c-1.062-1.127-2.118-2.254-3.156-3.381s-2.02-2.2-2.949-3.22-1.768-1.938-2.5-2.756-1.333-1.488-1.792-2-.729-.825-.826-.934c-.3-.354-.549-.644-.748-.863a.878.878,0,0,0-.591-.335c-.175.006-.3.129-.368.367a3.355,3.355,0,0,0-.1.946l-.326,22.76c-.006,1.114-.042,2-.1,2.666a4.585,4.585,0,0,1-.326,1.5,1.131,1.131,0,0,1-.7.63,4.166,4.166,0,0,1-.826.155c-.3.026-.561.039-.8.039a.953.953,0,0,0-.423.07.243.243,0,0,0-.156.239.311.311,0,0,0,.223.322,1.611,1.611,0,0,0,.573.064c.633,0,1.23-.013,1.779-.032s1.014-.032,1.388-.052.627-.032.742-.032c.344.007.881.026,1.623.058s1.695.052,2.865.058a1.9,1.9,0,0,0,.609-.077.317.317,0,0,0,.224-.309.242.242,0,0,0-.157-.239,1.113,1.113,0,0,0-.459-.07,7.911,7.911,0,0,1-.929-.045,4.142,4.142,0,0,1-.953-.226,1.256,1.256,0,0,1-.633-.56,4.02,4.02,0,0,1-.434-1.34,16.064,16.064,0,0,1-.2-2.389l-.4-16.113Z" transform="translate(-34.001 -98.418)" fill="#231f20"/><path d="M215.115,501.855a.357.357,0,0,1,.223.064.451.451,0,0,1,.139.206l2.9,7.96a.715.715,0,0,1,0,.593.533.533,0,0,1-.325.3.9.9,0,0,0-.386.1.257.257,0,0,0-.121.245c.006.129.1.206.3.238a6.441,6.441,0,0,0,.784.071c.971.026,1.894.045,2.768.052s1.665.019,2.365.019,1.267.006,1.708.006.784-.013,1.025-.032a1.249,1.249,0,0,0,.507-.116.254.254,0,0,0,.133-.238.258.258,0,0,0-.127-.258.741.741,0,0,0-.344-.051c-.217,0-.459-.013-.718-.032a7.365,7.365,0,0,1-.8-.123,2.284,2.284,0,0,1-.628-.251,3.061,3.061,0,0,1-.735-.625,6.841,6.841,0,0,1-.851-1.236,17.682,17.682,0,0,1-.971-2.1q-.435-1.11-1.014-2.608t-1.243-3.233c-.446-1.166-.905-2.363-1.375-3.6s-.935-2.467-1.4-3.69-.911-2.4-1.333-3.516-.814-2.145-1.17-3.072-.652-1.713-.9-2.357-.428-1.108-.543-1.379a5.317,5.317,0,0,0-.464-.953.539.539,0,0,0-.441-.283c-.175-.007-.332.109-.476.354a7.317,7.317,0,0,0-.537,1.192l-9.085,23.957a12.818,12.818,0,0,1-.748,1.707,3.947,3.947,0,0,1-.953,1.2,2.719,2.719,0,0,1-1.376.574c-.151.019-.337.038-.549.051s-.4.026-.573.026a.573.573,0,0,0-.326.07.258.258,0,0,0-.108.239.313.313,0,0,0,.169.309,1.286,1.286,0,0,0,.519.077c.476,0,.941-.006,1.405-.019s.893-.026,1.285-.039.736-.026,1.007-.038.471-.02.573-.02c.381,0,.791.013,1.237.032s.893.033,1.339.052.869.032,1.261.032a1.083,1.083,0,0,0,.459-.077.327.327,0,0,0,.156-.309.234.234,0,0,0-.108-.239.88.88,0,0,0-.435-.07h-.542a1.608,1.608,0,0,1-1.146-.335,1.138,1.138,0,0,1-.3-.863,5.052,5.052,0,0,1,.139-.992,10.012,10.012,0,0,1,.4-1.365l1.954-5.294a.631.631,0,0,1,.121-.245.285.285,0,0,1,.205-.064Zm-7.348-1.932a.131.131,0,0,1-.139-.078.309.309,0,0,1-.006-.193l3.33-9.467a.971.971,0,0,1,.085-.232c.036-.07.078-.109.132-.115s.091.045.121.115a2.171,2.171,0,0,1,.06.232l3.258,9.506a.211.211,0,0,1-.006.161.192.192,0,0,1-.175.071Z" transform="translate(-34.001 -98.418)" fill="#231f20"/><path d="M256.89,490.34H257c.132.154.392.444.766.882s.85.973,1.412,1.617,1.194,1.359,1.888,2.144,1.429,1.6,2.2,2.448,1.556,1.687,2.346,2.53c.947,1,1.93,2.048,2.938,3.13s1.991,2.138,2.956,3.175,1.864,1.991,2.684,2.86,1.521,1.6,2.1,2.2a5.243,5.243,0,0,0,.615.586,1.063,1.063,0,0,0,.615.264.369.369,0,0,0,.356-.283,2.578,2.578,0,0,0,.115-.915l.4-24.382a10.736,10.736,0,0,1,.139-1.746,2.318,2.318,0,0,1,.41-1.03,1.507,1.507,0,0,1,.79-.508,3.078,3.078,0,0,1,.574-.1,4.527,4.527,0,0,1,.512-.013q.652,0,.652-.348a.3.3,0,0,0-.242-.289,1.952,1.952,0,0,0-.591-.059c-.591,0-1.134.014-1.617.033s-.892.032-1.224.051-.567.033-.706.033c-.259,0-.609-.013-1.056-.033s-.947-.038-1.52-.051-1.17-.033-1.8-.033a2.549,2.549,0,0,0-.676.059.3.3,0,0,0-.265.289.29.29,0,0,0,.126.258.873.873,0,0,0,.453.09c.174,0,.373,0,.6.007a6.121,6.121,0,0,1,.687.058,2.8,2.8,0,0,1,.628.167,1.656,1.656,0,0,1,.7.548,2.667,2.667,0,0,1,.392,1.062,12.213,12.213,0,0,1,.138,1.868l.362,17.35h-.18c-.133-.135-.4-.438-.827-.9s-.929-1.037-1.532-1.713-1.237-1.385-1.912-2.138-1.334-1.481-1.979-2.19-1.213-1.333-1.713-1.868q-1.595-1.69-3.156-3.381t-2.95-3.22c-.929-1.024-1.767-1.938-2.5-2.756s-1.333-1.488-1.792-2-.73-.825-.826-.934c-.3-.354-.549-.644-.748-.863a.878.878,0,0,0-.591-.335c-.175.006-.3.129-.369.367a3.4,3.4,0,0,0-.1.946l-.326,22.76c-.006,1.114-.042,2-.1,2.666a4.585,4.585,0,0,1-.326,1.5,1.131,1.131,0,0,1-.7.63,4.166,4.166,0,0,1-.826.155c-.3.026-.561.039-.8.039a.948.948,0,0,0-.422.07.244.244,0,0,0-.157.239.313.313,0,0,0,.224.322,1.611,1.611,0,0,0,.573.064c.633,0,1.23-.013,1.779-.032s1.014-.032,1.388-.052.627-.032.742-.032c.344.007.881.026,1.622.058s1.7.052,2.866.058a1.908,1.908,0,0,0,.609-.077.317.317,0,0,0,.224-.309.243.243,0,0,0-.158-.239,1.108,1.108,0,0,0-.458-.07,7.9,7.9,0,0,1-.929-.045,4.13,4.13,0,0,1-.953-.226,1.252,1.252,0,0,1-.633-.56,4.041,4.041,0,0,1-.435-1.34,16.086,16.086,0,0,1-.2-2.389l-.4-16.113Z" transform="translate(-34.001 -98.418)" fill="#231f20"/><path d="M141.542,507.844a12.516,12.516,0,0,1-.241,1.327,3.847,3.847,0,0,1-.447,1.127,1.322,1.322,0,0,1-.8.6,4.907,4.907,0,0,1-.639.1c-.157.013-.308.013-.447.013a1.053,1.053,0,0,0-.422.064.214.214,0,0,0-.157.206.35.35,0,0,0,.193.341.949.949,0,0,0,.458.084c.3,0,.61-.006.954-.019l1.013-.039.929-.038q.426-.02.688-.02c.223,0,.537.013.935.032s.851.033,1.351.052,1,.032,1.514.032a1.7,1.7,0,0,0,.64-.084.336.336,0,0,0,.229-.341.226.226,0,0,0-.163-.206.947.947,0,0,0-.38-.064,6.507,6.507,0,0,1-.651-.039,6.714,6.714,0,0,1-.869-.155,1.577,1.577,0,0,1-.772-.4,1.126,1.126,0,0,1-.314-.837c0-.3.012-.593.03-.876s.042-.6.079-.94l1.882-15.07h.145c.259.586.536,1.217.844,1.894s.622,1.358.935,2.035.61,1.32.887,1.912.507,1.108.706,1.533.326.728.392.895c.079.187.211.489.4.9s.416.9.682,1.455.543,1.147.838,1.771.592,1.224.875,1.823.549,1.14.79,1.629.435.889.58,1.192c.283.586.53,1.056.73,1.4s.379.528.536.534a.4.4,0,0,0,.308-.154,3.236,3.236,0,0,0,.386-.644c.157-.309.374-.766.646-1.365l7.89-17.234h.145l2.172,16.809a4.91,4.91,0,0,1,.048,1.211c-.042.264-.115.418-.229.45a1.026,1.026,0,0,0-.3.187.319.319,0,0,0-.1.238c-.006.116.066.206.211.271a3.252,3.252,0,0,0,.838.154c.248.02.573.039.983.052s.863.039,1.364.051l1.532.039c.519.007,1.013.019,1.484.026s.881.013,1.231.019.6.007.754.007a2.008,2.008,0,0,0,.663-.1.364.364,0,0,0,.278-.328.218.218,0,0,0-.169-.22,1.235,1.235,0,0,0-.41-.051,5.5,5.5,0,0,1-.905-.065,7.462,7.462,0,0,1-1.339-.322,1.663,1.663,0,0,1-.869-.624,3.731,3.731,0,0,1-.543-1.262,17.7,17.7,0,0,1-.362-2.016l-3.294-23.648a2.668,2.668,0,0,0-.241-.9.474.474,0,0,0-.41-.3.5.5,0,0,0-.41.232,3.792,3.792,0,0,0-.386.695L156.6,504.637l-9.882-21.484c-.157-.328-.29-.586-.4-.76a1.254,1.254,0,0,0-.3-.355.447.447,0,0,0-.277-.083.436.436,0,0,0-.374.258,2.014,2.014,0,0,0-.242.747l-3.583,24.884Z" transform="translate(-34.001 -98.418)" fill="#231f20"/><path d="M463,507.844a12.268,12.268,0,0,1-.241,1.327,3.874,3.874,0,0,1-.446,1.127,1.324,1.324,0,0,1-.8.6,4.918,4.918,0,0,1-.64.1c-.157.013-.308.013-.446.013a1.061,1.061,0,0,0-.423.064.213.213,0,0,0-.156.206.349.349,0,0,0,.192.341.953.953,0,0,0,.459.084c.3,0,.61-.006.953-.019l1.013-.039.93-.038q.425-.02.687-.02c.223,0,.537.013.936.032s.85.033,1.35.052,1,.032,1.515.032a1.7,1.7,0,0,0,.64-.084.337.337,0,0,0,.229-.341.229.229,0,0,0-.163-.206.955.955,0,0,0-.381-.064c-.18,0-.4-.013-.651-.039a6.744,6.744,0,0,1-.869-.155,1.577,1.577,0,0,1-.772-.4,1.126,1.126,0,0,1-.314-.837c0-.3.013-.593.031-.876s.042-.6.078-.94L467.6,492.7h.145c.259.586.537,1.217.845,1.894s.621,1.358.934,2.035.61,1.32.888,1.912.507,1.108.7,1.533.326.728.392.895c.079.187.211.489.4.9s.417.9.682,1.455.543,1.147.838,1.771.592,1.224.875,1.823.549,1.14.79,1.629.435.889.58,1.192c.283.586.531,1.056.73,1.4s.38.528.537.534a.4.4,0,0,0,.308-.154,3.244,3.244,0,0,0,.385-.644c.157-.309.375-.766.646-1.365l7.89-17.234h.145l2.172,16.809a4.861,4.861,0,0,1,.048,1.211c-.042.264-.114.418-.229.45a1.026,1.026,0,0,0-.3.187.319.319,0,0,0-.1.238c-.006.116.066.206.211.271a3.253,3.253,0,0,0,.839.154c.247.02.572.039.983.052s.863.039,1.363.051l1.533.039c.518.007,1.013.019,1.484.026s.88.013,1.23.019.6.007.754.007a2.01,2.01,0,0,0,.664-.1.363.363,0,0,0,.277-.328.217.217,0,0,0-.169-.22,1.235,1.235,0,0,0-.41-.051,5.509,5.509,0,0,1-.9-.065,7.482,7.482,0,0,1-1.339-.322,1.67,1.67,0,0,1-.869-.624,3.731,3.731,0,0,1-.543-1.262,17.729,17.729,0,0,1-.361-2.016l-3.294-23.648a2.665,2.665,0,0,0-.242-.9.472.472,0,0,0-.41-.3.5.5,0,0,0-.41.232,3.792,3.792,0,0,0-.386.695l-9.845,21.755-9.882-21.484a8.079,8.079,0,0,0-.4-.76,1.254,1.254,0,0,0-.3-.355.45.45,0,0,0-.278-.083.437.437,0,0,0-.374.258,2.015,2.015,0,0,0-.241.747L463,507.844Z" transform="translate(-34.001 -98.418)" fill="#231f20"/><path d="M383.92,504.869c0-.966,0-1.836.006-2.609s.013-1.449.03-2.028a3.168,3.168,0,0,1,.338-1.539,1.458,1.458,0,0,1,1.038-.664c.211-.038.392-.07.543-.09a3.448,3.448,0,0,1,.434-.025.65.65,0,0,0,.332-.072.254.254,0,0,0,.139-.238.3.3,0,0,0-.187-.309,1.224,1.224,0,0,0-.537-.077c-.4,0-.869.012-1.376.032s-1.025.032-1.526.052-.947.032-1.333.032c-.368,0-.844-.013-1.423-.032s-1.2-.032-1.871-.052-1.315-.032-1.954-.032a1.337,1.337,0,0,0-.567.077.3.3,0,0,0-.194.309.252.252,0,0,0,.151.238.845.845,0,0,0,.392.072c.266,0,.525.006.791.025a3.886,3.886,0,0,1,.621.09,2.255,2.255,0,0,1,.929.4,1.466,1.466,0,0,1,.477.708,3.967,3.967,0,0,1,.15,1.1c.019.573.031,1.237.031,1.99s0,1.6,0,2.57v3.632a2.232,2.232,0,0,1-.138.863,1.108,1.108,0,0,1-.549.566,3.538,3.538,0,0,1-.971.3,7.669,7.669,0,0,1-1.08.116c-.368.012-.706.012-1.026.012a12.494,12.494,0,0,1-4.24-.714,11.4,11.4,0,0,1-3.494-2.01,12.337,12.337,0,0,1-2.629-3.1,14.9,14.9,0,0,1-1.653-4,18.37,18.37,0,0,1-.58-4.7,19.4,19.4,0,0,1,.411-4.167,11.156,11.156,0,0,1,1.158-3.1,8.479,8.479,0,0,1,1.761-2.2,9.378,9.378,0,0,1,1.907-1.32,8.823,8.823,0,0,1,1.882-.722,10.817,10.817,0,0,1,1.774-.3c.573-.045,1.1-.065,1.6-.058a13.4,13.4,0,0,1,2.835.3,12.248,12.248,0,0,1,2.329.747,9.953,9.953,0,0,1,1.762.979,6.247,6.247,0,0,1,1.145.992,4.4,4.4,0,0,1,.713,1.114,5.377,5.377,0,0,1,.362,1.108,9.883,9.883,0,0,1,.156.985.944.944,0,0,0,.1.367.273.273,0,0,0,.259.136.3.3,0,0,0,.308-.175,1.581,1.581,0,0,0,.09-.637c0-1.2.013-2.19.043-2.969s.054-1.4.084-1.855.06-.8.09-1.024.037-.393.037-.489a.446.446,0,0,0-.091-.322.628.628,0,0,0-.416-.142,9.1,9.1,0,0,1-.941-.1c-.344-.045-.688-.1-1.025-.161s-.634-.117-.894-.168c-.187-.038-.506-.1-.953-.161s-.977-.135-1.586-.206-1.243-.129-1.912-.174-1.321-.077-1.955-.077a25.581,25.581,0,0,0-3.1.154,15.786,15.786,0,0,0-3.245.709,14.987,14.987,0,0,0-3.391,1.648,12.151,12.151,0,0,0-2.37,2,13.881,13.881,0,0,0-2.015,2.8,15.322,15.322,0,0,0-1.394,3.555,18.33,18.33,0,0,0,.368,9.957,12.977,12.977,0,0,0,2.444,4.263,13.41,13.41,0,0,0,3.673,2.95,17.418,17.418,0,0,0,4.573,1.706,23.194,23.194,0,0,0,5.145.554c.713,0,1.454-.025,2.227-.09s1.538-.154,2.31-.289a16.255,16.255,0,0,0,2.226-.535,10.1,10.1,0,0,0,1.961-.824,1.1,1.1,0,0,0,.313-.252.711.711,0,0,0,.133-.374c.018-.173.024-.424.024-.766Z" transform="translate(-34.001 -98.418)" fill="#231f20"/><path d="M215.115,501.855a.357.357,0,0,1,.223.064.451.451,0,0,1,.139.206l2.9,7.96a.715.715,0,0,1,0,.593.533.533,0,0,1-.325.3.9.9,0,0,0-.386.1.257.257,0,0,0-.121.245c.006.129.1.206.3.238a6.441,6.441,0,0,0,.784.071c.971.026,1.894.045,2.768.052s1.665.019,2.365.019,1.267.006,1.708.006.784-.013,1.025-.032a1.249,1.249,0,0,0,.507-.116.254.254,0,0,0,.133-.238.258.258,0,0,0-.127-.258.741.741,0,0,0-.344-.051c-.217,0-.459-.013-.718-.032a7.365,7.365,0,0,1-.8-.123,2.284,2.284,0,0,1-.628-.251,3.061,3.061,0,0,1-.735-.625,6.841,6.841,0,0,1-.851-1.236,17.682,17.682,0,0,1-.971-2.1q-.435-1.11-1.014-2.608t-1.243-3.233c-.446-1.166-.905-2.363-1.375-3.6s-.935-2.467-1.4-3.69-.911-2.4-1.333-3.516-.814-2.145-1.17-3.072-.652-1.713-.9-2.357-.428-1.108-.543-1.379a5.317,5.317,0,0,0-.464-.953.539.539,0,0,0-.441-.283c-.175-.007-.332.109-.476.354a7.317,7.317,0,0,0-.537,1.192l-9.085,23.957a12.818,12.818,0,0,1-.748,1.707,3.947,3.947,0,0,1-.953,1.2,2.719,2.719,0,0,1-1.376.574c-.151.019-.337.038-.549.051s-.4.026-.573.026a.573.573,0,0,0-.326.07.258.258,0,0,0-.108.239.313.313,0,0,0,.169.309,1.286,1.286,0,0,0,.519.077c.476,0,.941-.006,1.405-.019s.893-.026,1.285-.039.736-.026,1.007-.038.471-.02.573-.02c.381,0,.791.013,1.237.032s.893.033,1.339.052.869.032,1.261.032a1.083,1.083,0,0,0,.459-.077.327.327,0,0,0,.156-.309.234.234,0,0,0-.108-.239.88.88,0,0,0-.435-.07h-.542a1.608,1.608,0,0,1-1.146-.335,1.138,1.138,0,0,1-.3-.863,5.052,5.052,0,0,1,.139-.992,10.012,10.012,0,0,1,.4-1.365l1.954-5.294a.631.631,0,0,1,.121-.245.285.285,0,0,1,.205-.064Zm-7.348-1.932a.131.131,0,0,1-.139-.078.309.309,0,0,1-.006-.193l3.33-9.467a.971.971,0,0,1,.085-.232c.036-.07.078-.109.132-.115s.091.045.121.115a2.171,2.171,0,0,1,.06.232l3.258,9.506a.211.211,0,0,1-.006.161.192.192,0,0,1-.175.071Z" transform="translate(-34.001 -98.418)" fill="#231f20"/><path d="M322.12,501.855a.355.355,0,0,1,.223.064.436.436,0,0,1,.139.206l2.895,7.96a.715.715,0,0,1,0,.593.53.53,0,0,1-.325.3.9.9,0,0,0-.386.1.257.257,0,0,0-.121.245c.006.129.1.206.3.238a6.461,6.461,0,0,0,.784.071c.971.026,1.894.045,2.769.052s1.665.019,2.365.019,1.267.006,1.707.006.784-.013,1.026-.032a1.243,1.243,0,0,0,.506-.116.254.254,0,0,0,.133-.238.258.258,0,0,0-.127-.258.741.741,0,0,0-.344-.051c-.217,0-.458-.013-.718-.032a7.4,7.4,0,0,1-.8-.123,2.267,2.267,0,0,1-.627-.251,3.063,3.063,0,0,1-.736-.625,6.841,6.841,0,0,1-.851-1.236,17.843,17.843,0,0,1-.971-2.1q-.435-1.11-1.014-2.608t-1.242-3.233c-.447-1.166-.9-2.363-1.375-3.6s-.936-2.467-1.4-3.69-.911-2.4-1.334-3.516-.813-2.145-1.17-3.072-.651-1.713-.9-2.357-.428-1.108-.542-1.379a5.306,5.306,0,0,0-.465-.953.539.539,0,0,0-.44-.283c-.176-.007-.332.109-.477.354a7.405,7.405,0,0,0-.537,1.192l-9.085,23.957a12.818,12.818,0,0,1-.748,1.707,3.917,3.917,0,0,1-.953,1.2,2.72,2.72,0,0,1-1.375.574c-.151.019-.338.038-.549.051s-.4.026-.573.026a.571.571,0,0,0-.326.07.259.259,0,0,0-.109.239.313.313,0,0,0,.169.309,1.286,1.286,0,0,0,.519.077c.476,0,.941-.006,1.406-.019s.892-.026,1.284-.039.736-.026,1.008-.038.47-.02.573-.02c.38,0,.79.013,1.237.032s.893.033,1.339.052.868.032,1.261.032a1.078,1.078,0,0,0,.458-.077.326.326,0,0,0,.157-.309.235.235,0,0,0-.109-.239.875.875,0,0,0-.434-.07h-.543a1.608,1.608,0,0,1-1.146-.335,1.134,1.134,0,0,1-.3-.863,5.036,5.036,0,0,1,.138-.992,10.012,10.012,0,0,1,.4-1.365l1.955-5.294a.632.632,0,0,1,.12-.245.288.288,0,0,1,.206-.064Zm-7.347-1.932a.132.132,0,0,1-.14-.078.3.3,0,0,1,0-.193l3.33-9.467a.97.97,0,0,1,.084-.232.18.18,0,0,1,.133-.115c.054.006.09.045.12.115a1.953,1.953,0,0,1,.061.232l3.257,9.506a.207.207,0,0,1,0,.161.2.2,0,0,1-.176.071Z" transform="translate(-34.001 -98.418)" fill="#231f20"/><path d="M419.3,500.5c0,1.191,0,2.305-.006,3.355s-.024,1.977-.048,2.808-.066,1.52-.127,2.067a8.021,8.021,0,0,1-.175,1.011,2.073,2.073,0,0,1-.313.741.883.883,0,0,1-.562.373c-.162.039-.349.078-.566.11a6.407,6.407,0,0,1-.737.045.878.878,0,0,0-.452.084.25.25,0,0,0-.127.225.31.31,0,0,0,.187.3,1.288,1.288,0,0,0,.537.09c.368-.006.773-.019,1.207-.039s.869-.038,1.291-.038c.44-.019.845-.032,1.207-.032s.651-.007.856-.007c.537,0,1.1.007,1.707.026s1.285.051,2.057.09c.773.019,1.672.045,2.7.071s2.214.045,3.565.045a8.187,8.187,0,0,0,1.062-.038.931.931,0,0,0,.579-.258,1.593,1.593,0,0,0,.314-.709c.048-.2.1-.5.151-.869s.1-.792.15-1.23.091-.863.121-1.256.048-.7.048-.934a1.94,1.94,0,0,0-.036-.489.242.242,0,0,0-.253-.206.283.283,0,0,0-.266.129,1.249,1.249,0,0,0-.132.451,5.671,5.671,0,0,1-.556,1.848,2.407,2.407,0,0,1-1.073,1.011,4.125,4.125,0,0,1-1.092.328,9.647,9.647,0,0,1-1.219.116c-.4.02-.772.02-1.092.02a14.115,14.115,0,0,1-2.226-.129,2.877,2.877,0,0,1-1.3-.5,1.843,1.843,0,0,1-.627-.992,6.874,6.874,0,0,1-.187-1.629c-.006-.232-.012-.541-.012-.928s-.006-.818-.006-1.287.006-.941.006-1.424.006-.921.006-1.333.006-.747.006-1.017V497.45a.756.756,0,0,1,.042-.284.176.176,0,0,1,.175-.1c.181,0,.447,0,.8.007s.747.006,1.182.013l1.3.019c.428.013.814.019,1.146.032s.567.026.712.045a3.162,3.162,0,0,1,1.08.29,1.685,1.685,0,0,1,.639.516,1.814,1.814,0,0,1,.308.7,5.472,5.472,0,0,1,.1.74c.013.238.03.457.043.651a.443.443,0,0,0,.066.244.305.305,0,0,0,.259.1.265.265,0,0,0,.23-.122.677.677,0,0,0,.084-.284,3.117,3.117,0,0,0,.012-.328c0-.071.006-.213.018-.412s.025-.432.042-.7.03-.528.049-.792.024-.489.036-.689c.048-.651.1-1.172.139-1.559s.078-.676.108-.862a2.988,2.988,0,0,0,.042-.4.342.342,0,0,0-.072-.244.248.248,0,0,0-.181-.065.366.366,0,0,0-.259.135c-.091.091-.194.213-.32.367a1.363,1.363,0,0,1-.664.406,5.182,5.182,0,0,1-1.073.174c-.175.013-.459.026-.845.038s-.833.02-1.321.02-.99.013-1.484.013-.929.007-1.315.007h-.827a.214.214,0,0,1-.211-.11.775.775,0,0,1-.042-.316V484.93a.551.551,0,0,1,.06-.3.2.2,0,0,1,.193-.09c.151,0,.4,0,.754.006s.748.013,1.189.026.893.019,1.333.032.827.026,1.164.045.567.026.7.046a5.894,5.894,0,0,1,1.375.308,1.748,1.748,0,0,1,.712.464,1.768,1.768,0,0,1,.338.619,2.588,2.588,0,0,1,.139.508,3.97,3.97,0,0,1,.06.5c.012.162.018.284.018.381a.967.967,0,0,0,.067.4.269.269,0,0,0,.259.141.3.3,0,0,0,.266-.141.817.817,0,0,0,.1-.284q.027-.183.054-.54c.018-.239.037-.49.048-.767s.031-.521.049-.747.024-.393.03-.5c.036-.586.079-1.043.121-1.385s.084-.586.12-.753a2.437,2.437,0,0,0,.049-.373.588.588,0,0,0-.043-.245.174.174,0,0,0-.175-.1,1.023,1.023,0,0,0-.289.064c-.1.039-.2.065-.29.091a6.088,6.088,0,0,1-.627.115c-.271.038-.579.078-.929.116-.121.006-.4.013-.826.013s-.954.013-1.569.013-1.267.006-1.955.006-1.351.007-1.99.007h-2.709c-.259,0-.585-.007-.977-.026s-.827-.032-1.3-.051c-.459,0-.935-.007-1.436-.02s-1-.02-1.5-.02a1.77,1.77,0,0,0-.6.072.278.278,0,0,0-.194.276.291.291,0,0,0,.158.278,1.218,1.218,0,0,0,.458.07c.265,0,.525.007.79.026a3.54,3.54,0,0,1,.621.091,2.178,2.178,0,0,1,.918.4,1.489,1.489,0,0,1,.47.708,4.392,4.392,0,0,1,.169,1.095c.012.238.024.5.036.76s.019.593.024.966.006.843.006,1.4.006,1.249.006,2.073v9.79Zm107.728,0c0,1.191,0,2.305-.006,3.355s-.025,1.977-.049,2.808-.066,1.52-.126,2.067a8.205,8.205,0,0,1-.175,1.011,2.074,2.074,0,0,1-.314.741.88.88,0,0,1-.561.373c-.163.039-.35.078-.567.11a6.4,6.4,0,0,1-.736.045.885.885,0,0,0-.453.084.249.249,0,0,0-.126.225.308.308,0,0,0,.187.3,1.282,1.282,0,0,0,.537.09c.368-.006.772-.019,1.206-.039s.869-.038,1.292-.038c.44-.019.844-.032,1.206-.032s.651-.007.856-.007c.538,0,1.1.007,1.707.026s1.286.051,2.058.09c.772.019,1.671.045,2.7.071s2.214.045,3.566.045a8.178,8.178,0,0,0,1.061-.038.925.925,0,0,0,.579-.258,1.582,1.582,0,0,0,.314-.709c.048-.2.1-.5.151-.869s.1-.792.151-1.23.09-.863.121-1.256.047-.7.047-.934a1.851,1.851,0,0,0-.036-.489.242.242,0,0,0-.253-.206.282.282,0,0,0-.265.129,1.226,1.226,0,0,0-.133.451,5.7,5.7,0,0,1-.555,1.848,2.4,2.4,0,0,1-1.074,1.011,4.125,4.125,0,0,1-1.092.328,9.649,9.649,0,0,1-1.218.116c-.4.02-.772.02-1.092.02a14.107,14.107,0,0,1-2.226-.129,2.873,2.873,0,0,1-1.3-.5,1.839,1.839,0,0,1-.628-.992,6.926,6.926,0,0,1-.187-1.629c0-.232-.012-.541-.012-.928s-.006-.818-.006-1.287.006-.941.006-1.424.007-.921.007-1.333,0-.747,0-1.017V497.45a.756.756,0,0,1,.042-.284.177.177,0,0,1,.175-.1c.182,0,.447,0,.8.007s.748.006,1.182.013l1.3.019c.429.013.814.019,1.146.032s.567.026.712.045a3.162,3.162,0,0,1,1.08.29,1.681,1.681,0,0,1,.64.516,1.8,1.8,0,0,1,.307.7,5.322,5.322,0,0,1,.1.74c.012.238.03.457.042.651a.435.435,0,0,0,.067.244.3.3,0,0,0,.259.1.265.265,0,0,0,.229-.122.677.677,0,0,0,.085-.284c.011-.116.011-.225.011-.328,0-.071.006-.213.019-.412s.024-.432.042-.7.03-.528.048-.792.024-.489.036-.689c.049-.651.1-1.172.139-1.559s.078-.676.109-.862a2.988,2.988,0,0,0,.042-.4.337.337,0,0,0-.073-.244.246.246,0,0,0-.181-.065.368.368,0,0,0-.259.135c-.09.091-.193.213-.32.367a1.359,1.359,0,0,1-.663.406,5.2,5.2,0,0,1-1.074.174c-.175.013-.459.026-.844.038s-.833.02-1.322.02-.989.013-1.484.013-.929.007-1.314.007h-.827a.216.216,0,0,1-.212-.11.793.793,0,0,1-.042-.316V484.93a.54.54,0,0,1,.061-.3.2.2,0,0,1,.193-.09c.15,0,.4,0,.754.006s.748.013,1.188.026.893.019,1.333.032.827.026,1.165.045.567.026.7.046a5.907,5.907,0,0,1,1.375.308,1.588,1.588,0,0,1,1.049,1.083,2.521,2.521,0,0,1,.139.508,3.8,3.8,0,0,1,.061.5c.012.162.017.284.017.381a.984.984,0,0,0,.067.4.27.27,0,0,0,.259.141.3.3,0,0,0,.266-.141.778.778,0,0,0,.1-.284c.019-.122.036-.3.055-.54s.036-.49.048-.767.03-.521.048-.747.025-.393.03-.5c.037-.586.079-1.043.121-1.385s.085-.586.121-.753a2.406,2.406,0,0,0,.048-.373.589.589,0,0,0-.042-.245.175.175,0,0,0-.175-.1,1.029,1.029,0,0,0-.29.064c-.1.039-.2.065-.29.091a6.059,6.059,0,0,1-.626.115c-.272.038-.58.078-.93.116-.12.006-.4.013-.826.013s-.953.013-1.569.013-1.266.006-1.954.006-1.351.007-1.991.007h-2.708c-.26,0-.586-.007-.978-.026s-.826-.032-1.3-.051c-.458,0-.935-.007-1.436-.02s-1-.02-1.5-.02a1.777,1.777,0,0,0-.6.072.278.278,0,0,0-.193.276.29.29,0,0,0,.157.278,1.218,1.218,0,0,0,.458.07c.266,0,.525.007.791.026a3.555,3.555,0,0,1,.621.091,2.179,2.179,0,0,1,.917.4,1.489,1.489,0,0,1,.47.708,4.347,4.347,0,0,1,.169,1.095c.012.238.025.5.037.76s.018.593.024.966.006.843.006,1.4.006,1.249.006,2.073v9.79Zm47.958-10.163h.109c.133.154.392.444.766.882s.851.973,1.412,1.617,1.194,1.359,1.888,2.144,1.43,1.6,2.2,2.448,1.556,1.687,2.346,2.53c.947,1,1.931,2.048,2.938,3.13s1.991,2.138,2.956,3.175,1.865,1.991,2.685,2.86,1.52,1.6,2.1,2.2a5.243,5.243,0,0,0,.615.586,1.065,1.065,0,0,0,.616.264.368.368,0,0,0,.355-.283,2.578,2.578,0,0,0,.115-.915l.4-24.382a10.967,10.967,0,0,1,.139-1.746,2.318,2.318,0,0,1,.411-1.03,1.5,1.5,0,0,1,.79-.508,3.068,3.068,0,0,1,.573-.1,4.551,4.551,0,0,1,.513-.013q.651,0,.651-.348a.3.3,0,0,0-.241-.289,1.959,1.959,0,0,0-.591-.059c-.592,0-1.135.014-1.617.033s-.893.032-1.225.051-.567.033-.706.033c-.259,0-.609-.013-1.056-.033s-.946-.038-1.52-.051-1.17-.033-1.8-.033a2.549,2.549,0,0,0-.676.059.306.306,0,0,0-.265.289.29.29,0,0,0,.126.258.875.875,0,0,0,.453.09c.175,0,.374,0,.6.007a6.138,6.138,0,0,1,.688.058,2.809,2.809,0,0,1,.627.167,1.644,1.644,0,0,1,.7.548,2.667,2.667,0,0,1,.392,1.062,12.194,12.194,0,0,1,.139,1.868l.362,17.35h-.181c-.133-.135-.4-.438-.827-.9s-.929-1.037-1.532-1.713-1.237-1.385-1.912-2.138-1.333-1.481-1.979-2.19-1.213-1.333-1.713-1.868q-1.593-1.69-3.155-3.381t-2.95-3.22c-.929-1.024-1.768-1.938-2.5-2.756s-1.333-1.488-1.791-2-.73-.825-.827-.934c-.3-.354-.548-.644-.748-.863a.878.878,0,0,0-.591-.335c-.175.006-.3.129-.368.367a3.4,3.4,0,0,0-.1.946l-.326,22.76c-.006,1.114-.042,2-.1,2.666a4.585,4.585,0,0,1-.326,1.5,1.132,1.132,0,0,1-.7.63,4.162,4.162,0,0,1-.827.155c-.295.026-.561.039-.8.039a.953.953,0,0,0-.423.07.243.243,0,0,0-.156.239.312.312,0,0,0,.223.322,1.614,1.614,0,0,0,.573.064c.633,0,1.231-.013,1.779-.032s1.014-.032,1.388-.052.628-.032.742-.032c.344.007.881.026,1.623.058s1.7.052,2.865.058a1.914,1.914,0,0,0,.61-.077.317.317,0,0,0,.223-.309.242.242,0,0,0-.157-.239,1.11,1.11,0,0,0-.459-.07,7.911,7.911,0,0,1-.929-.045,4.142,4.142,0,0,1-.953-.226,1.256,1.256,0,0,1-.633-.56,4.02,4.02,0,0,1-.434-1.34,15.951,15.951,0,0,1-.2-2.389l-.4-16.113ZM636.365,500.5c0,1.191,0,2.305-.006,3.355s-.024,1.977-.048,2.808-.067,1.52-.127,2.067a5.075,5.075,0,0,1-.3,1.424,1.057,1.057,0,0,1-.753.7c-.164.039-.351.078-.568.11a6.4,6.4,0,0,1-.736.045.881.881,0,0,0-.452.084.248.248,0,0,0-.127.225.308.308,0,0,0,.187.3,1.288,1.288,0,0,0,.537.09c.368,0,.772-.006,1.207-.019l1.3-.039,1.194-.038c.356-.013.646-.02.857-.02.343,0,.808.013,1.393.032s1.243.033,1.979.052,1.508.032,2.311.032a1.185,1.185,0,0,0,.494-.09.323.323,0,0,0,.193-.3.248.248,0,0,0-.139-.225.872.872,0,0,0-.44-.084c-.181,0-.386-.007-.61-.02l-.651-.057c-.217-.026-.41-.052-.585-.078a1.416,1.416,0,0,1-.826-.367,1.657,1.657,0,0,1-.411-.734,5.18,5.18,0,0,1-.175-.985c-.06-.561-.1-1.256-.126-2.093s-.043-1.778-.049-2.821,0-2.164,0-3.355V484.659l4.56.117a8.545,8.545,0,0,1,2.522.373,2.956,2.956,0,0,1,1.327.8,1.65,1.65,0,0,1,.422.992l.036.424a1.929,1.929,0,0,0,.1.606.3.3,0,0,0,.295.167.239.239,0,0,0,.229-.167,1.425,1.425,0,0,0,.1-.451c0-.264.006-.6.018-1.011s.024-.85.036-1.3.024-.882.037-1.269.018-.688.018-.9a2.385,2.385,0,0,0-.048-.625.232.232,0,0,0-.242-.187,1.987,1.987,0,0,0-.337.052c-.158.039-.369.083-.64.142-.265.038-.61.083-1.019.122s-.9.064-1.478.071H632.492c-.4,0-.814-.007-1.237-.026s-.838-.039-1.242-.065-.785-.064-1.14-.1a3.344,3.344,0,0,1-.742-.155,4.6,4.6,0,0,1-.483-.206.872.872,0,0,0-.332-.1.287.287,0,0,0-.259.18,2.076,2.076,0,0,0-.175.554c-.018.071-.049.245-.109.522s-.115.611-.187,1-.145.779-.217,1.179-.127.759-.175,1.075a5.112,5.112,0,0,0-.072.67,1.176,1.176,0,0,0,.066.47.267.267,0,0,0,.26.148.3.3,0,0,0,.253-.116.929.929,0,0,0,.145-.347,3.544,3.544,0,0,1,.2-.574,5.431,5.431,0,0,1,.416-.779,1.805,1.805,0,0,1,.688-.651,3.373,3.373,0,0,1,1.1-.335,14.3,14.3,0,0,1,1.72-.135l5.393-.155Z" transform="translate(-34.001 -98.418)" fill="#231f20"/><path d="M664.439,493.632c60.251.543,92.052,1.206,92.052,1.923s-31.8,1.38-92.052,1.922v-3.845Zm-539.3,3.845c-59.621-.542-91.051-1.2-91.051-1.922s31.43-1.38,91.051-1.923Z" transform="translate(-34.001 -98.418)" fill="#231f20" fill-rule="evenodd"/><path d="M432.515,105.671v94.523C484.379,173.314,509.314,139.662,432.515,105.671Z" transform="translate(-34.001 -98.418)" fill-rule="evenodd" fill="url(#a6f15c82-d9fd-428f-bde3-67de1b1b6cf0)"/><path d="M351.227,237.258c-22.929,7.376-44.525,13.259-60.71,17.3v14.218c15.2-4.021,36.977-10.458,60.71-18.715,96.886-33.706,226.414-97.75,74.723-151.641C557.795,153.519,443.685,207.517,351.227,237.258Z" transform="translate(-34.001 -98.418)" fill="#231f20" fill-rule="evenodd"/><path d="M334.589,299.1a16.775,16.775,0,0,1,3.833,2.985,17.638,17.638,0,0,1,2.538,3.351,18.788,18.788,0,0,1,1.912,4.521,21.764,21.764,0,0,1,.751,5.746,22.885,22.885,0,0,1-.492,4.754,21.414,21.414,0,0,1-1.3,4.109,20.2,20.2,0,0,1-1.868,3.414,18.766,18.766,0,0,1-2.18,2.681,16.807,16.807,0,0,1-2.448,2.055,22.169,22.169,0,0,1-3.735,2.055,26.4,26.4,0,0,1-5.13,1.582,33.806,33.806,0,0,1-6.647.634c-.974,0-1.984-.036-3.039-.1s-2.1-.143-3.127-.224-1.993-.161-2.886-.223-1.689-.1-2.368-.1c-.3,0-.724,0-1.269.009s-1.135.018-1.787.044c-.625,0-1.26.018-1.912.054s-1.242.045-1.787.053a2.033,2.033,0,0,1-.8-.124.43.43,0,0,1-.277-.412.343.343,0,0,1,.188-.312,1.376,1.376,0,0,1,.67-.116,9.811,9.811,0,0,0,1.091-.063c.321-.045.6-.1.839-.152a1.311,1.311,0,0,0,.831-.518,2.793,2.793,0,0,0,.465-1.028,10.789,10.789,0,0,0,.259-1.4q.135-1.14.188-2.869c.036-1.153.062-2.448.071-3.9s.009-3,.009-4.656V307.37c0-1.144,0-2.109-.009-2.887l-.009-1.938c-.009-.519-.026-.966-.036-1.341l-.053-1.054a5.662,5.662,0,0,0-.25-1.519,2.032,2.032,0,0,0-.7-.983,3.236,3.236,0,0,0-1.358-.554,5.881,5.881,0,0,0-.921-.125c-.393-.027-.778-.036-1.17-.036a1.935,1.935,0,0,1-.68-.1.4.4,0,0,1-.232-.385.389.389,0,0,1,.286-.384,2.594,2.594,0,0,1,.894-.1c.965,0,1.939.018,2.93.045s1.913.044,2.753.071,1.519.045,2.037.045c.563,0,1.287-.018,2.163-.045s1.84-.054,2.894-.071,2.118-.045,3.2-.045c1.349-.009,2.761.009,4.254.045s2.993.161,4.53.348a28.751,28.751,0,0,1,4.557.929,20.081,20.081,0,0,1,4.325,1.805Zm-44.072,67.048h60.71V256.985c-24.373,8.338-46.331,14.676-60.71,18.346Z" transform="translate(-34.001 -98.418)" fill-rule="evenodd" fill="url(#41cb76e4-e08f-4c12-895c-b733175e4541)"/><path d="M333.07,305.913a13.8,13.8,0,0,0-1.778-2.064,18.124,18.124,0,0,0-3.869-2.833A19.465,19.465,0,0,0,323.4,299.4a23.857,23.857,0,0,0-3.887-.741,31.631,31.631,0,0,0-3.449-.17q-.416,0-.939.027c-.348.017-.7.044-1.045.08s-.661.071-.93.116a2.376,2.376,0,0,0-.571.152,1,1,0,0,0-.5.393,1.3,1.3,0,0,0-.143.679c-.008.465-.027,1.081-.027,1.85s-.017,1.635-.017,2.609-.01,1.984-.01,3.056v9.963c0,1.9.01,3.61.019,5.111s.017,2.734.035,3.718.036,1.653.054,2c.018.465.044.965.08,1.519a15.028,15.028,0,0,0,.179,1.537,2.752,2.752,0,0,0,.331,1.019,3.377,3.377,0,0,0,1.188,1.01,8.457,8.457,0,0,0,2.287.8,17.154,17.154,0,0,0,3.548.33,27.517,27.517,0,0,0,4.915-.384,16.131,16.131,0,0,0,4-1.233,14.652,14.652,0,0,0,3.413-2.243,10.978,10.978,0,0,0,2.7-3.547,17.04,17.04,0,0,0,1.4-4.539,30.958,30.958,0,0,0,.4-5.264,21.835,21.835,0,0,0-.482-4.655,18.61,18.61,0,0,0-1.224-3.78A17.089,17.089,0,0,0,333.07,305.913Z" transform="translate(-34.001 -98.418)" fill="#00579a" fill-rule="evenodd"/><path d="M361.516,253.394V366.143h60.709v-137.5c-19.549,9.25-40.676,17.614-60.709,24.748Zm39.221,41.989c.769.08,1.555.179,2.368.286,1.019.143,1.966.313,2.842.491s1.724.331,2.519.42a.994.994,0,0,1,.626.224.535.535,0,0,1,.178.42,4.855,4.855,0,0,1-.044.536l-.107.911c-.036.376-.081.885-.116,1.5-.027.448-.045.947-.054,1.5l-.027,1.654-.027,1.528c-.008.465-.027.831-.053,1.108a2.806,2.806,0,0,1-.161.92.489.489,0,0,1-.483.313.438.438,0,0,1-.429-.313,2.713,2.713,0,0,1-.107-.867,7.667,7.667,0,0,0-2.091-4.932,8.143,8.143,0,0,0-2.511-1.7,16.481,16.481,0,0,0-3.752-1.179,23.424,23.424,0,0,0-4.62-.447,20.273,20.273,0,0,0-4.164.384,12.885,12.885,0,0,0-3.288,1.126,11.5,11.5,0,0,0-2.627,1.814,13.7,13.7,0,0,0-3.021,4.039,17.843,17.843,0,0,0-1.5,4.736,29.214,29.214,0,0,0-.411,5.111,22.177,22.177,0,0,0,.75,5.844,18.878,18.878,0,0,0,2.029,4.771,17.817,17.817,0,0,0,2.976,3.717A18.036,18.036,0,0,0,389,331.947a17.256,17.256,0,0,0,3.824,1.582,14.349,14.349,0,0,0,3.744.527,30.89,30.89,0,0,0,4.191-.232,10.681,10.681,0,0,0,3.19-.894,7.512,7.512,0,0,0,2.431-1.877,7.912,7.912,0,0,0,.83-1.152,9.728,9.728,0,0,0,.626-1.269,6.64,6.64,0,0,0,.366-1.117,2.8,2.8,0,0,1,.25-.858.456.456,0,0,1,.447-.214.41.41,0,0,1,.385.241,1.333,1.333,0,0,1,.1.563c0,.135-.027.412-.072.813s-.107.885-.187,1.448-.17,1.152-.277,1.76-.206,1.188-.313,1.734-.224,1-.331,1.375a3.177,3.177,0,0,1-.277.725,1.284,1.284,0,0,1-.41.464,3,3,0,0,1-.706.366,11.706,11.706,0,0,1-1.931.555c-.741.151-1.545.285-2.412.384s-1.752.17-2.654.223-1.787.071-2.654.071a39.134,39.134,0,0,1-6.942-.571,26.1,26.1,0,0,1-6.14-1.877,21.684,21.684,0,0,1-5.308-3.395,19.08,19.08,0,0,1-3.252-3.682,18.552,18.552,0,0,1-2.037-4,21.21,21.21,0,0,1-1.055-4.119,26.013,26.013,0,0,1-.3-4.012,20.458,20.458,0,0,1,.26-3.172,21.342,21.342,0,0,1,.947-3.771,19.639,19.639,0,0,1,1.912-3.976,18.587,18.587,0,0,1,3.154-3.771,19.861,19.861,0,0,1,4.334-3.047,21.8,21.8,0,0,1,5.522-1.948,33.118,33.118,0,0,1,7.086-.688c1.1,0,2.082.027,2.949.062S399.96,295.3,400.737,295.383Z" transform="translate(-34.001 -98.418)" fill-rule="evenodd" fill="url(#26ba4aa6-47f2-4bc7-bd8c-5c337f008d70)"/><path d="M432.515,223.616V366.143h60.708V178.5c-10.78,16.056-33.636,31.435-60.708,45.121Zm15.4,73.83,14.636,29.81,14.583-30.185a5.284,5.284,0,0,1,.572-.965.758.758,0,0,1,.607-.322.7.7,0,0,1,.608.411,3.527,3.527,0,0,1,.358,1.251l4.878,32.811a23.015,23.015,0,0,0,.537,2.8,5,5,0,0,0,.8,1.751,2.481,2.481,0,0,0,1.287.867,11.919,11.919,0,0,0,1.984.446,8.792,8.792,0,0,0,1.34.09,1.935,1.935,0,0,1,.608.071.3.3,0,0,1,.25.3c-.009.214-.152.367-.411.456a3.16,3.16,0,0,1-.983.134c-.232,0-.607,0-1.117-.009l-1.823-.027-2.2-.036-2.269-.054c-.742-.017-1.412-.044-2.02-.071s-1.09-.045-1.456-.071a5.151,5.151,0,0,1-1.242-.214c-.215-.09-.322-.215-.313-.376a.425.425,0,0,1,.152-.33,1.528,1.528,0,0,1,.437-.26c.17-.044.278-.259.34-.625a6.34,6.34,0,0,0-.071-1.68L474.771,310.1h-.214l-11.688,23.912c-.4.831-.724,1.465-.956,1.894a4.382,4.382,0,0,1-.572.893.6.6,0,0,1-.456.215c-.232-.009-.5-.259-.8-.742s-.661-1.125-1.081-1.939c-.215-.42-.5-.974-.858-1.653s-.742-1.438-1.171-2.26-.858-1.671-1.3-2.53l-1.242-2.456c-.393-.769-.724-1.448-1.01-2.02s-.474-.992-.59-1.251c-.1-.232-.3-.652-.581-1.242s-.643-1.3-1.045-2.127L449.9,316.14l-1.385-2.824c-.457-.938-.867-1.814-1.252-2.627h-.214L444.265,331.6c-.053.474-.089.911-.116,1.3s-.045.8-.045,1.216a1.512,1.512,0,0,0,.465,1.162,2.428,2.428,0,0,0,1.144.554,10.757,10.757,0,0,0,1.286.214c.376.035.7.054.966.054a1.5,1.5,0,0,1,.562.089.318.318,0,0,1,.241.286.471.471,0,0,1-.339.474,2.733,2.733,0,0,1-.947.115c-.76,0-1.51-.018-2.243-.044s-1.4-.045-2-.071-1.054-.045-1.384-.045c-.26,0-.6.009-1.019.026l-1.376.054-1.5.054c-.509.018-.973.026-1.412.026a1.532,1.532,0,0,1-.679-.115.485.485,0,0,1-.285-.474.3.3,0,0,1,.232-.286,1.671,1.671,0,0,1,.626-.089c.2,0,.429,0,.661-.019a7.574,7.574,0,0,0,.947-.142,1.95,1.95,0,0,0,1.179-.831,5.165,5.165,0,0,0,.662-1.564,16.2,16.2,0,0,0,.357-1.841l5.308-34.527a2.668,2.668,0,0,1,.357-1.036.652.652,0,0,1,.554-.358.714.714,0,0,1,.411.116,1.783,1.783,0,0,1,.447.492A11.449,11.449,0,0,1,447.911,297.446Z" transform="translate(-34.001 -98.418)" fill-rule="evenodd" fill="url(#14d27740-1d8b-4937-b08a-2ec6c087eb1a)"/><g opacity="0.7"><path d="M343.8,311.135a20.5,20.5,0,0,0-2.059-4.83,19.412,19.412,0,0,0-2.771-3.656,18.565,18.565,0,0,0-4.223-3.286,21.9,21.9,0,0,0-4.678-1.952,30.5,30.5,0,0,0-4.824-.984c-1.582-.193-3.159-.314-4.694-.361-1.251-.029-2.445-.047-3.59-.047q-2.031-.006-3.931.047c-1.063.018-2.035.045-2.917.072-.856.026-1.562.044-2.112.044-.5,0-1.166-.018-1.984-.044-.846-.027-1.775-.054-2.76-.072-.441-.012-.873-.014-1.3-.016-.535,0-1.068,0-1.652-.029a4.508,4.508,0,0,0-1.516.209,2.067,2.067,0,0,0-1.37,1.959,2.113,2.113,0,0,0,1.3,1.953,4.96,4.96,0,0,0,1.692.223c.216,0,.438.009.657.024a4.437,4.437,0,0,1,.706.1,1.6,1.6,0,0,1,.677.25.308.308,0,0,1,.11.17,4.079,4.079,0,0,1,.165,1.04l.1,4.294c.009.774.009,1.734.009,2.869V322.69c0,1.651,0,3.192-.009,4.646-.008,1.432-.035,2.714-.07,3.853-.036,1.112-.1,2.027-.178,2.72a8.829,8.829,0,0,1-.218,1.188,1.515,1.515,0,0,1-.121.337c-.18.038-.377.074-.569.1s-.392.028-.6.037a3.9,3.9,0,0,0-1.807.353,2.023,2.023,0,0,0-1.037,1.775,2.122,2.122,0,0,0,1.27,1.949,3.637,3.637,0,0,0,1.514.274h0c.557-.009,1.171-.028,1.85-.057.622-.033,1.226-.051,1.89-.052.627-.025,1.2-.044,1.746-.044s.94-.008,1.238-.008h0c.6,0,1.311.03,2.25.094.574.039,1.178.088,1.809.138l1.063.084c1.038.08,2.094.162,3.159.225,1.147.068,2.175.1,3.15.1a35.566,35.566,0,0,0,6.984-.669,28.065,28.065,0,0,0,5.465-1.692,23.647,23.647,0,0,0,4.027-2.221,18.4,18.4,0,0,0,2.672-2.244,20.487,20.487,0,0,0,2.372-2.914,22.167,22.167,0,0,0,2.019-3.686,22.935,22.935,0,0,0,1.407-4.428,24.7,24.7,0,0,0,.531-5.127,23.683,23.683,0,0,0-.777-6.059Zm-29.249-9.2c.372-.02.681-.027.993-.027a29.4,29.4,0,0,1,3.138.163,22.124,22.124,0,0,1,3.61.691,17.711,17.711,0,0,1,3.672,1.479,16.509,16.509,0,0,1,3.52,2.583,12.269,12.269,0,0,1,1.559,1.819,15.3,15.3,0,0,1,1.489,2.608,17.105,17.105,0,0,1,1.114,3.449,20.482,20.482,0,0,1,.442,4.3,29.48,29.48,0,0,1-.38,4.977,15.415,15.415,0,0,1-1.259,4.086,9.362,9.362,0,0,1-2.288,3.007,13.1,13.1,0,0,1-3.017,1.986,14.45,14.45,0,0,1-3.584,1.1,28.458,28.458,0,0,1-4.611.359,15.587,15.587,0,0,1-3.19-.29,6.629,6.629,0,0,1-1.822-.625,2.364,2.364,0,0,1-.589-.427h0a2.149,2.149,0,0,1-.1-.42,13.359,13.359,0,0,1-.159-1.363c-.035-.538-.061-1.025-.079-1.5-.018-.337-.034-.988-.051-1.943-.018-.978-.027-2.2-.036-3.695s-.018-3.2-.018-5.1v-9.964c0-1.067,0-2.082.009-3.056s.009-1.826.018-2.609c0-.562.01-1.042.018-1.439.193-.027.408-.05.64-.074C313.9,301.978,314.22,301.952,314.546,301.937Z" transform="translate(-34.001 -98.418)" fill="#231f20"/><path d="M408.305,326.5h-.014a2.062,2.062,0,0,0-1.969,1.046,4.036,4.036,0,0,0-.441,1.353,5.2,5.2,0,0,1-.278.836,8.209,8.209,0,0,1-.518,1.047,6,6,0,0,1-.653.909,5.825,5.825,0,0,1-1.883,1.457,9.016,9.016,0,0,1-2.691.745,28.4,28.4,0,0,1-3.728.217,13.775,13.775,0,0,1-3.54-.467,15.63,15.63,0,0,1-3.443-1.427,16.429,16.429,0,0,1-3.23-2.4,16.04,16.04,0,0,1-2.692-3.366,17.329,17.329,0,0,1-1.846-4.348,20.638,20.638,0,0,1-.689-5.4,27.729,27.729,0,0,1,.388-4.819,16.247,16.247,0,0,1,1.353-4.279,12.079,12.079,0,0,1,2.647-3.54,9.962,9.962,0,0,1,2.264-1.559,11.191,11.191,0,0,1,2.859-.973,18.7,18.7,0,0,1,3.807-.347,21.926,21.926,0,0,1,4.3.413,14.922,14.922,0,0,1,3.37,1.055,6.625,6.625,0,0,1,2,1.329,5.817,5.817,0,0,1,1.188,1.842,5.688,5.688,0,0,1,.44,1.933,4.234,4.234,0,0,0,.223,1.478,2.11,2.11,0,0,0,1.968,1.347h.042a2.18,2.18,0,0,0,2.02-1.3,4.027,4.027,0,0,0,.288-1.415c.03-.313.053-.72.063-1.242l.052-3.178c.011-.53.027-1.007.052-1.436.035-.593.078-1.082.107-1.4l.107-.9a6.171,6.171,0,0,0,.057-.742,2.188,2.188,0,0,0-.672-1.612,2.575,2.575,0,0,0-1.63-.705c-.708-.08-1.481-.209-2.369-.4-1.011-.207-1.978-.374-2.96-.511-.827-.11-1.63-.211-2.415-.293-.8-.083-1.644-.147-2.56-.195-.888-.036-1.895-.063-3.02-.063a34.887,34.887,0,0,0-7.446.727,23.513,23.513,0,0,0-5.944,2.1,21.612,21.612,0,0,0-4.7,3.305,20.262,20.262,0,0,0-3.437,4.114,21.38,21.38,0,0,0-2.075,4.318,23.13,23.13,0,0,0-1.02,4.068,21.847,21.847,0,0,0-.278,3.411,27.543,27.543,0,0,0,.322,4.276,23.134,23.134,0,0,0,1.135,4.438,20.314,20.314,0,0,0,2.219,4.364,20.894,20.894,0,0,0,3.556,4.028,23.515,23.515,0,0,0,5.715,3.653,27.919,27.919,0,0,0,6.541,2,40.741,40.741,0,0,0,7.069.6h.236c.8,0,1.7-.026,2.683-.076s1.889-.133,2.744-.23,1.706-.233,2.559-.408a13.392,13.392,0,0,0,2.195-.63,4.6,4.6,0,0,0,1.071-.559,2.962,2.962,0,0,0,.918-1.031,4.542,4.542,0,0,0,.422-1.074c.117-.4.233-.9.366-1.517.11-.564.224-1.166.318-1.766.11-.629.2-1.236.286-1.813s.147-1.081.2-1.5c.053-.49.081-.832.081-1a2.88,2.88,0,0,0-.259-1.279A2.1,2.1,0,0,0,408.305,326.5Z" transform="translate(-34.001 -98.418)" fill="#231f20"/><path d="M490.571,336.419a2.883,2.883,0,0,0-1.206-.155,6.354,6.354,0,0,1-1.076-.078,10.8,10.8,0,0,1-1.714-.393.792.792,0,0,1-.431-.3,3.242,3.242,0,0,1-.5-1.14,21.472,21.472,0,0,1-.5-2.608l-4.878-32.809a4.957,4.957,0,0,0-.567-1.85,2.363,2.363,0,0,0-2.065-1.253,2.463,2.463,0,0,0-1.93.961,6.8,6.8,0,0,0-.767,1.278l-13.078,27.069-13.062-26.6-.063-.13a13.87,13.87,0,0,0-.686-1.216,3.463,3.463,0,0,0-.989-1.006,2.382,2.382,0,0,0-1.215-.354,2.245,2.245,0,0,0-2,1.086,4.27,4.27,0,0,0-.638,1.739L437.9,333.226a14.554,14.554,0,0,1-.319,1.645,3.5,3.5,0,0,1-.416,1.021.41.41,0,0,1-.131.137,6.135,6.135,0,0,1-.738.114c-.173.013-.339.012-.482.012a2.892,2.892,0,0,0-1.237.186,2.012,2.012,0,0,0-1.354,1.94,2.143,2.143,0,0,0,1.282,1.948,3.175,3.175,0,0,0,1.3.263h0l.466-.008c.335,0,.689-.008,1.073-.021l2.88-.109a21.284,21.284,0,0,1,2.273.02l2.006.071c.749.028,1.516.046,2.282.046a4.512,4.512,0,0,0,1.54-.217,2.191,2.191,0,0,0,1.448-2.171,1.968,1.968,0,0,0-1.279-1.731,3.9,3.9,0,0,0-1.352-.222c-.195-.008-.415-.017-.657-.04a9.252,9.252,0,0,1-1.1-.187,1,1,0,0,1-.271-.094c0-.368.018-.725.042-1.078s.058-.777.107-1.191l2.089-15.69,1.673,3.4c.406.838.758,1.552,1.046,2.127.269.553.453.948.56,1.2.119.268.324.7.619,1.312l.427.862c.18.364.377.758.59,1.174l4.57,8.9c.409.8.805,1.506,1.14,2.048a2.817,2.817,0,0,0,2.12,1.543,2.269,2.269,0,0,0,1.793-.737,5.741,5.741,0,0,0,.831-1.252c.24-.445.576-1.1.987-1.954l9.427-19.288,2.508,18.2a7.208,7.208,0,0,1,.084.874,2.56,2.56,0,0,0-.251.2,2.042,2.042,0,0,0-.7,1.481A2.084,2.084,0,0,0,476.161,340a6.627,6.627,0,0,0,1.738.323c.382.026.889.057,1.5.074s1.3.055,2.06.073l6.3.116c.521.009.907.009,1.146.009a4.874,4.874,0,0,0,1.533-.226,2.194,2.194,0,0,0,1.547-2.05A1.981,1.981,0,0,0,490.571,336.419Z" transform="translate(-34.001 -98.418)" fill="#231f20"/></g><path d="M342.606,310.269a18.773,18.773,0,0,0-1.912-4.522,17.662,17.662,0,0,0-2.538-3.35,16.726,16.726,0,0,0-3.833-2.985,20.06,20.06,0,0,0-4.325-1.8,28.529,28.529,0,0,0-4.557-.929q-2.305-.281-4.53-.349c-1.492-.035-2.9-.053-4.253-.044-1.082,0-2.154.018-3.2.044s-2.019.045-2.894.072-1.6.045-2.162.045c-.519,0-1.2-.018-2.038-.045s-1.76-.054-2.752-.072-1.966-.044-2.931-.044a2.594,2.594,0,0,0-.894.1.388.388,0,0,0-.285.384.4.4,0,0,0,.232.384,1.9,1.9,0,0,0,.679.1c.393,0,.777.009,1.171.036a5.866,5.866,0,0,1,.92.125,3.243,3.243,0,0,1,1.358.553,2.029,2.029,0,0,1,.7.984,5.662,5.662,0,0,1,.25,1.519l.054,1.054c.009.375.027.822.035,1.34l.01,1.939c.009.777.009,1.743.009,2.886v13.582c0,1.653,0,3.2-.009,4.656s-.036,2.743-.072,3.9-.1,2.109-.188,2.868a10.64,10.64,0,0,1-.259,1.4,2.8,2.8,0,0,1-.464,1.027,1.317,1.317,0,0,1-.832.519c-.241.053-.518.107-.839.152a10.056,10.056,0,0,1-1.09.062,1.393,1.393,0,0,0-.671.116.344.344,0,0,0-.187.313.427.427,0,0,0,.276.411,2.016,2.016,0,0,0,.8.125c.545-.009,1.144-.027,1.787-.053s1.287-.054,1.912-.054c.653-.026,1.251-.045,1.787-.045s.965-.008,1.27-.008c.678,0,1.465.035,2.367.1s1.858.143,2.887.223,2.072.161,3.127.224,2.064.1,3.038.1a33.737,33.737,0,0,0,6.648-.635,26.3,26.3,0,0,0,5.129-1.581,22.169,22.169,0,0,0,3.735-2.055,16.7,16.7,0,0,0,2.448-2.055,18.826,18.826,0,0,0,2.181-2.681,20.3,20.3,0,0,0,1.867-3.414,21.5,21.5,0,0,0,1.305-4.11,22.876,22.876,0,0,0,.491-4.753A21.764,21.764,0,0,0,342.606,310.269Zm-6.836,12.563a16.981,16.981,0,0,1-1.4,4.539,10.979,10.979,0,0,1-2.7,3.548,14.657,14.657,0,0,1-3.414,2.243,16.118,16.118,0,0,1-4,1.233,27.509,27.509,0,0,1-4.915.384,17.061,17.061,0,0,1-3.547-.331,8.389,8.389,0,0,1-2.287-.8,3.371,3.371,0,0,1-1.189-1.01,2.748,2.748,0,0,1-.33-1.018,14.784,14.784,0,0,1-.179-1.537c-.036-.554-.063-1.054-.08-1.519-.019-.348-.036-1.019-.054-2s-.027-2.216-.036-3.717-.018-3.208-.018-5.111v-9.963c0-1.072,0-2.091.009-3.056s.009-1.841.018-2.609.018-1.385.027-1.85a1.3,1.3,0,0,1,.143-.679,1,1,0,0,1,.5-.393,2.374,2.374,0,0,1,.572-.152c.268-.045.581-.08.929-.116s.7-.063,1.045-.08.662-.027.939-.027a31.857,31.857,0,0,1,3.449.169,23.929,23.929,0,0,1,3.887.742,19.387,19.387,0,0,1,4.021,1.617,18.065,18.065,0,0,1,3.869,2.833,13.681,13.681,0,0,1,1.778,2.064,16.956,16.956,0,0,1,1.662,2.9,18.548,18.548,0,0,1,1.225,3.78,21.964,21.964,0,0,1,.482,4.655A31.046,31.046,0,0,1,335.77,322.832Z" transform="translate(-34.001 -98.418)" fill="#fff" fill-rule="evenodd"/><path d="M400.471,295.7c.769.08,1.555.178,2.368.286,1.019.143,1.966.313,2.842.491s1.724.331,2.52.42a.991.991,0,0,1,.625.224.535.535,0,0,1,.179.419,4.914,4.914,0,0,1-.045.537l-.107.911c-.036.375-.08.884-.116,1.5q-.041.671-.054,1.5l-.026,1.653-.027,1.528c-.009.465-.027.832-.054,1.109a2.78,2.78,0,0,1-.161.92.488.488,0,0,1-.482.313.437.437,0,0,1-.429-.313,2.685,2.685,0,0,1-.107-.867,7.667,7.667,0,0,0-2.091-4.932,8.168,8.168,0,0,0-2.511-1.7,16.555,16.555,0,0,0-3.753-1.18,23.5,23.5,0,0,0-4.62-.446,20.273,20.273,0,0,0-4.164.384,12.911,12.911,0,0,0-3.288,1.126,11.522,11.522,0,0,0-2.627,1.814,13.708,13.708,0,0,0-3.021,4.039,17.842,17.842,0,0,0-1.5,4.736,29.206,29.206,0,0,0-.412,5.111,22.121,22.121,0,0,0,.751,5.843,18.869,18.869,0,0,0,2.028,4.772,17.817,17.817,0,0,0,2.976,3.717,18.036,18.036,0,0,0,3.565,2.645,17.263,17.263,0,0,0,3.825,1.582,14.344,14.344,0,0,0,3.744.527,30.91,30.91,0,0,0,4.191-.232,10.674,10.674,0,0,0,3.189-.894,7.512,7.512,0,0,0,2.431-1.877,7.9,7.9,0,0,0,.831-1.152,9.718,9.718,0,0,0,.625-1.269,6.745,6.745,0,0,0,.367-1.117,2.775,2.775,0,0,1,.25-.858.454.454,0,0,1,.447-.214.41.41,0,0,1,.384.241,1.331,1.331,0,0,1,.1.563c0,.134-.027.411-.072.813s-.106.885-.187,1.448-.17,1.152-.277,1.76-.206,1.188-.313,1.734-.223,1-.33,1.375a3.21,3.21,0,0,1-.278.724,1.27,1.27,0,0,1-.41.465,3,3,0,0,1-.706.366,11.629,11.629,0,0,1-1.93.554c-.742.152-1.546.286-2.413.385s-1.751.17-2.654.223-1.787.071-2.654.071a39.054,39.054,0,0,1-6.942-.572,26.078,26.078,0,0,1-6.139-1.876,21.7,21.7,0,0,1-5.308-3.395,19.116,19.116,0,0,1-3.253-3.682,18.642,18.642,0,0,1-2.037-4,21.134,21.134,0,0,1-1.054-4.119,25.788,25.788,0,0,1-.3-4.013,20.444,20.444,0,0,1,.259-3.171,21.342,21.342,0,0,1,.947-3.771,19.7,19.7,0,0,1,1.913-3.976,18.5,18.5,0,0,1,3.154-3.771,19.831,19.831,0,0,1,4.333-3.047,21.8,21.8,0,0,1,5.523-1.948,33.108,33.108,0,0,1,7.085-.688c1.1,0,2.082.026,2.949.062S399.694,295.619,400.471,295.7Z" transform="translate(-34.001 -98.418)" fill="#fff" fill-rule="evenodd"/><path d="M447.645,297.763l14.636,29.809,14.583-30.184a5.284,5.284,0,0,1,.572-.965.76.76,0,0,1,.608-.322.7.7,0,0,1,.607.411,3.527,3.527,0,0,1,.358,1.251l4.878,32.811a23.15,23.15,0,0,0,.537,2.8,4.982,4.982,0,0,0,.8,1.752,2.481,2.481,0,0,0,1.287.867,11.91,11.91,0,0,0,1.983.446,8.8,8.8,0,0,0,1.341.09,1.932,1.932,0,0,1,.607.071.3.3,0,0,1,.25.3c-.008.214-.151.366-.41.455a3.128,3.128,0,0,1-.983.135c-.233,0-.608,0-1.117-.009l-1.823-.027-2.2-.036-2.27-.054c-.742-.017-1.412-.044-2.019-.071s-1.091-.045-1.457-.071a5.1,5.1,0,0,1-1.242-.215c-.215-.089-.321-.214-.313-.375a.428.428,0,0,1,.152-.33,1.521,1.521,0,0,1,.438-.26c.17-.044.277-.259.34-.625a6.393,6.393,0,0,0-.072-1.68l-3.217-23.322h-.214L462.6,334.328c-.4.83-.724,1.465-.956,1.894a4.411,4.411,0,0,1-.572.893.6.6,0,0,1-.456.215c-.232-.009-.5-.259-.8-.742s-.661-1.126-1.081-1.939c-.215-.42-.5-.974-.858-1.653s-.741-1.439-1.17-2.261-.858-1.671-1.3-2.529l-1.242-2.457c-.393-.768-.724-1.447-1.009-2.019s-.474-.992-.59-1.251c-.1-.232-.3-.652-.581-1.242s-.644-1.3-1.046-2.127l-1.313-2.654-1.385-2.823c-.456-.938-.867-1.814-1.251-2.627h-.215L444,331.915c-.053.474-.089.911-.116,1.3s-.045.8-.045,1.216a1.517,1.517,0,0,0,.465,1.162,2.428,2.428,0,0,0,1.144.554,11,11,0,0,0,1.286.214c.376.035.7.054.966.054a1.482,1.482,0,0,1,.563.089.318.318,0,0,1,.241.286.469.469,0,0,1-.339.473,2.715,2.715,0,0,1-.948.116c-.76,0-1.51-.018-2.242-.044s-1.4-.045-2-.072-1.055-.044-1.385-.044c-.26,0-.6.009-1.019.026l-1.376.054-1.5.053c-.509.018-.974.027-1.412.027a1.511,1.511,0,0,1-.679-.116.482.482,0,0,1-.286-.473.3.3,0,0,1,.232-.286,1.651,1.651,0,0,1,.626-.089c.2,0,.429,0,.661-.019a7.423,7.423,0,0,0,.947-.143,1.951,1.951,0,0,0,1.18-.83,5.189,5.189,0,0,0,.661-1.564,16.2,16.2,0,0,0,.357-1.841l5.308-34.527a2.7,2.7,0,0,1,.358-1.037.652.652,0,0,1,.553-.357.709.709,0,0,1,.412.116,1.783,1.783,0,0,1,.447.492A11.729,11.729,0,0,1,447.645,297.763Z" transform="translate(-34.001 -98.418)" fill="#fff" fill-rule="evenodd"/></svg>